<?xml version="1.0" standalone="no"?>
<!DOCTYPE svg PUBLIC "-//W3C//DTD SVG 1.1//EN" "http://www.w3.org/Graphics/SVG/1.1/DTD/svg11.dtd" >
<svg xmlns="http://www.w3.org/2000/svg">
<defs>
  <font id="jk-font" horiz-adv-x="33">
    <font-face font-family="jk-font"
      units-per-em="1200" ascent="1200"
      descent="0" />
    <missing-glyph horiz-adv-x="0" />
    <glyph glyph-name="wifi"
      unicode="&#xE001;"
      horiz-adv-x="33" d="M615 300C607.5 303.75 596.25 303.75 584.9999999999999 300C581.2499999999999 300 577.5 296.25 573.7499999999999 292.5C566.2499999999999 285 562.4999999999999 277.5000000000001 562.4999999999999 266.25C562.4999999999999 255 566.2499999999999 247.5 573.7499999999999 240.0000000000001S588.7499999999999 228.75 599.9999999999999 228.75C611.2499999999999 228.75 618.7499999999999 232.5000000000001 626.2499999999999 240.0000000000001C633.7499999999998 247.5 637.4999999999999 255 637.4999999999999 266.25C637.4999999999999 277.5000000000001 633.7499999999998 285 626.2499999999999 292.5C622.5 296.25 618.75 300 615 300zM420 476.25C401.25 465 397.5 442.5 412.5 423.75C423.75 408.7500000000001 446.25 401.25 465 416.25C547.5 476.2500000000001 660 476.2500000000001 742.5 416.25C750 412.5 757.5 408.7500000000001 765.0000000000001 408.7500000000001C776.2500000000001 408.7500000000001 787.5000000000001 412.5000000000001 795.0000000000001 423.75C806.2500000000001 442.5 802.5000000000001 465.0000000000001 787.5000000000001 476.25C671.25 551.25 528.75 551.25 420 476.25zM255 637.5C240 622.5 236.25 600 251.25 585C266.25 570.0000000000001 288.75 566.25 303.75 581.25C476.25 727.5 731.25 727.5 903.75 581.25C911.25 573.75 918.75 573.75 926.2500000000002 573.75C937.5000000000002 573.75 948.7500000000002 577.5000000000001 956.2500000000002 588.75C971.2500000000002 603.75 967.5000000000002 630 952.5000000000002 641.25C750 806.25 457.5 806.25 255 637.5zM1113.75 798.75C821.25 1057.5 382.5 1057.5 89.9999999999999 798.75C74.9999999999999 783.75 71.2499999999999 761.25 86.2499999999999 746.25C101.2499999999999 731.25 123.75 727.5 138.75 742.5C401.25 975 798.75 975 1065 742.5C1072.5 735 1080 735 1091.25 735C1102.5 735 1113.75 738.75 1121.25 746.25C1128.75 761.25 1128.75 787.5 1113.75 798.75z" />
    <glyph glyph-name="上一步"
      unicode="&#xE002;"
      horiz-adv-x="33" d="M1098.75 768.75C1012.5 1016.25 738.7500000000001 1147.5 491.2500000000001 1061.25C423.75 1038.75 363.7500000000001 997.5 315.0000000000001 948.75L150 795V1001.25C150 1023.75 135 1038.75 112.5 1038.75C90 1038.75 75 1023.75 75 1001.25V708.75C75 708.75 75 705 75 705C75 701.25 75 697.5 75 697.5C75 693.75 78.75 693.75 78.75 690C78.75 690 78.75 686.2500000000001 82.5 686.2500000000001C82.5 686.2500000000001 82.5 686.2500000000001 82.5 686.2500000000001C86.25 682.5000000000001 86.25 682.5000000000001 90 682.5000000000001C90 682.5000000000001 93.75 678.7500000000001 93.75 678.7500000000001C93.75 678.7500000000001 97.5 678.7500000000001 97.5 678.7500000000001C101.25 678.7500000000001 105 675.0000000000001 108.75 675.0000000000001C108.75 675.0000000000001 108.75 675.0000000000001 108.75 675.0000000000001H401.25C423.75 675.0000000000001 438.75 690.0000000000002 438.75 712.5000000000001C438.75 735.0000000000001 423.75 750.0000000000001 401.25 750.0000000000001H206.25L363.75 900.0000000000001C405 941.2500000000002 457.5 975.0000000000002 513.75 993.7500000000002C615 1031.2500000000002 723.7499999999999 1023.7500000000002 821.25 978.7500000000002C918.75 933.7500000000002 990 851.2500000000001 1027.5 750.0000000000001C1102.5 540.0000000000002 990 311.2500000000001 783.75 240.0000000000003C573.75 165.0000000000002 345 277.5000000000003 273.75 483.7500000000002C266.25 502.5000000000002 243.75 513.7500000000002 225 506.2500000000002C206.25 498.7500000000003 195 476.2500000000002 202.5 457.5000000000002C270 262.5000000000003 457.5 138.7500000000002 652.5 138.7500000000002C704.9999999999999 138.7500000000002 757.5 146.2500000000002 809.9999999999999 165.0000000000002C1053.75 247.5 1185 521.25 1098.75 768.75z" />
    <glyph glyph-name="上传-2"
      unicode="&#xE003;"
      horiz-adv-x="33" d="M393.75 855C405 855 412.5 858.75 420 866.25L551.25 997.5V405C551.25 382.5 566.25 367.5 588.75 367.5C611.25 367.5 626.25 382.5 626.25 405V997.5L757.5 866.25C772.4999999999999 851.25 795 851.25 809.9999999999999 866.25C824.9999999999999 881.25 824.9999999999999 903.75 809.9999999999999 918.75L615 1113.75C611.2499999999999 1117.5 607.5 1121.25 603.7499999999999 1121.25C600 1125 592.5 1125 588.75 1125C585 1125 577.5 1125 573.75 1121.25C570 1117.5 566.25 1117.5 562.4999999999999 1113.75L367.5 918.75C352.5 903.75 352.5 881.25 367.5 866.25C375 858.75 382.5 855 393.75 855zM1027.5 393.75C1004.9999999999998 393.75 990 378.75 990 356.25V210C990 176.2500000000001 963.75 150 929.9999999999998 150H247.5C213.75 150 187.5 176.25 187.5 210V356.25C187.5 378.75 172.5 393.75 150 393.75C127.5 393.75 112.5 378.75 112.5 356.25V210C112.5 135 172.5 75 247.5 75H929.9999999999998C1004.9999999999998 75 1065 135 1065 210V356.25C1065 378.75 1050 393.75 1027.5 393.75z" />
    <glyph glyph-name="上传"
      unicode="&#xE004;"
      horiz-adv-x="33" d="M626.25 622.5C622.4999999999999 626.25 618.75 630 615 630C611.2499999999999 633.75 603.7499999999999 633.75 599.9999999999999 633.75S588.7499999999999 633.75 584.9999999999999 630C581.2499999999999 626.25 577.5 626.25 573.7499999999999 622.5L397.5 446.25C382.4999999999999 431.25 382.4999999999999 408.75 397.5 393.75C412.5 378.75 435 378.75 450 393.75L562.4999999999999 506.25V198.75C562.4999999999999 176.25 577.5 161.25 599.9999999999999 161.25S637.5 176.25 637.5 198.75V506.25L750 393.75C757.5 386.25 768.75 382.5 776.25 382.5C787.5 382.5 795 386.25 802.5 393.75C817.4999999999999 408.75 817.4999999999999 431.25 802.5 446.25L626.25 622.5zM1095 630C1050 712.5 963.75 765 866.25 765H840.0000000000001C810 855 750.0000000000001 930 667.5000000000001 975C577.5000000000001 1027.5 472.5000000000002 1042.5 371.2500000000002 1016.25C270.0000000000001 990 183.7500000000002 926.25 131.2500000000002 836.25C78.7500000000001 746.25 63.7500000000001 641.25 90.0000000000001 540C105.0000000000001 479.9999999999999 135.0000000000001 423.7499999999999 176.2500000000001 378.7499999999999C187.5 363.75 210 363.75 225 375C240 390 243.75 412.5 228.75 427.5C195 465 172.5 509.9999999999999 157.5 558.75C135 641.2499999999999 150 727.5 191.25 798.75C232.5 870 303.75 922.5 386.25 945C468.75 967.5 555 952.5 626.2500000000001 911.25C697.5 870 750.0000000000001 798.75 772.5 716.25C776.2500000000001 701.2499999999999 791.25 686.2499999999999 810 686.2499999999999H866.25C933.7500000000002 686.2499999999999 993.75 648.7499999999999 1027.5 588.7499999999999C1076.25 498.7499999999999 1042.5 386.2499999999999 952.5000000000002 337.4999999999999C933.7500000000002 326.2499999999999 926.2500000000002 303.7499999999999 937.5000000000002 284.9999999999999C945.0000000000002 273.7499999999999 956.2500000000002 266.2499999999999 971.2500000000002 266.2499999999999C978.75 266.2499999999999 982.5000000000002 266.2499999999999 990.0000000000002 270C1113.75 348.75 1162.5 506.25 1095 630z" />
    <glyph glyph-name="下一步"
      unicode="&#xE005;"
      horiz-adv-x="33" d="M1087.5 1038.75C1065 1038.75 1050 1023.75 1050 1001.25V795L888.75 948.75C840 997.5 776.25 1038.75 708.75 1061.25C588.75 1102.5 461.2499999999999 1095 345 1042.5C228.75 986.25 142.5 892.5 101.25 772.5C15 525 142.5 251.2499999999999 390 165C442.5 146.25 495 138.75 547.4999999999999 138.75C618.7499999999999 138.75 686.2499999999999 153.75 753.7499999999999 183.75C870 240 956.25 333.75 997.4999999999998 453.7499999999999C1004.9999999999998 472.4999999999999 993.7499999999998 495 974.9999999999998 502.5C956.2499999999998 509.9999999999999 933.7499999999998 498.7499999999999 926.2499999999998 479.9999999999999C888.7499999999999 378.7499999999999 817.4999999999999 296.25 719.9999999999999 251.2499999999999C622.4999999999998 206.2499999999999 513.7499999999999 198.7499999999999 412.4999999999999 236.2499999999999C202.4999999999999 311.2499999999999 93.7499999999999 540 168.7499999999999 749.9999999999999C206.2499999999999 851.2499999999998 277.4999999999999 933.7499999999998 374.9999999999999 978.7499999999998C472.4999999999998 1023.7499999999998 581.2499999999999 1031.2499999999998 682.4999999999999 993.7499999999998C738.7499999999999 974.9999999999998 791.2499999999998 941.2499999999998 832.4999999999999 899.9999999999999L989.9999999999998 753.7499999999998H791.2499999999998C768.7499999999998 753.7499999999998 753.7499999999998 738.7499999999998 753.7499999999998 716.2499999999998C753.7499999999998 693.7499999999999 768.7499999999998 678.7499999999999 791.2499999999998 678.7499999999999H1087.5C1087.5 678.7499999999999 1087.5 678.7499999999999 1087.5 678.7499999999999C1091.25 678.7499999999999 1095 678.7499999999999 1098.75 682.4999999999999C1098.75 682.4999999999999 1102.5 682.4999999999999 1102.5 682.4999999999999C1102.5 682.4999999999999 1106.2500000000002 686.2499999999998 1106.2500000000002 686.2499999999998C1110.0000000000002 686.2499999999998 1110.0000000000002 689.9999999999998 1113.75 689.9999999999998C1113.75 689.9999999999998 1113.75 689.9999999999998 1113.75 689.9999999999998C1113.75 689.9999999999998 1113.75 693.7499999999998 1117.5000000000002 693.7499999999998C1117.5000000000002 697.4999999999998 1121.2500000000002 697.4999999999998 1121.2500000000002 701.2499999999998C1121.2500000000002 704.9999999999998 1121.2500000000002 704.9999999999998 1121.2500000000002 708.7499999999998C1121.2500000000002 708.7499999999998 1121.2500000000002 712.4999999999998 1121.2500000000002 712.4999999999998V1001.25C1125 1020 1110 1038.75 1087.5 1038.75z" />
    <glyph glyph-name="下载-2"
      unicode="&#xE006;"
      horiz-adv-x="33" d="M562.5 378.75C566.25 375 570 371.2500000000001 573.75 371.2500000000001C577.5 367.5 585 367.5 588.75 367.5S600 367.5 603.75 371.2500000000001C607.5000000000001 375.0000000000001 611.25 375.0000000000001 615.0000000000001 378.75L810 573.75C825 588.75 825 611.25 810 626.25C795.0000000000001 641.25 772.5 641.25 757.5000000000001 626.25L626.2500000000001 495.0000000000001V1087.5C626.2500000000001 1110 611.2500000000001 1125 588.7500000000001 1125C566.2500000000001 1125 551.2500000000001 1110 551.2500000000001 1087.5V495L420.0000000000001 626.25C405.0000000000001 641.25 382.5000000000001 641.25 367.5000000000001 626.25C352.5000000000001 611.25 352.5000000000001 588.75 367.5000000000001 573.75L562.5 378.75zM1027.5 393.75C1004.9999999999998 393.75 990 378.75 990 356.25V210C990 176.2500000000001 963.75 150 929.9999999999998 150H247.5C213.75 150 187.5 176.25 187.5 210V356.25C187.5 378.75 172.5 393.75 150 393.75C127.5 393.75 112.5 378.75 112.5 356.25V210C112.5 135 172.5 75 247.5 75H929.9999999999998C1004.9999999999998 75 1065 135 1065 210V356.25C1065 378.75 1050 393.75 1027.5 393.75z" />
    <glyph glyph-name="下载"
      unicode="&#xE007;"
      horiz-adv-x="33" d="M731.25 401.25L618.75 288.75V596.25C618.75 618.7499999999999 603.75 633.75 581.25 633.75C558.75 633.75 543.75 618.7499999999999 543.75 596.25V288.75L431.25 401.25C416.25 416.2499999999999 393.75 416.2499999999999 378.75 401.25C363.75 386.25 363.75 363.75 378.75 348.75L555 172.5C558.75 168.75 562.5 165 566.25 165C570 161.25 577.5000000000001 161.25 581.2500000000001 161.25C585 161.25 592.5000000000001 161.25 596.2500000000001 165C600.0000000000001 168.7500000000002 603.75 168.7500000000002 607.5000000000001 172.5L783.7500000000001 348.75C798.75 363.75 798.75 386.25 783.7500000000001 401.25C768.75 412.5 746.25 412.5 731.25 401.25zM1057.5 656.25C1008.75 723.75 930 765 847.5 765H821.2500000000001C791.25 855 731.2500000000001 930 648.7500000000001 975C558.7500000000001 1027.5 453.7500000000002 1042.5 352.5000000000002 1016.25C251.25 993.75 165 930 112.5 840C60 750 45 645 71.25 543.75C86.25 483.75 116.25 427.5 157.5 382.5C172.5 367.5 195 363.75 210 378.7499999999999C225 390 225 412.5 210 427.5C176.25 465 153.75 509.9999999999999 138.75 558.75C116.25 641.2499999999999 131.25 727.5 172.5 798.75C213.75 870 285 922.5 367.5 945C450 967.5 536.25 952.5 607.5000000000001 911.25C678.75 870 731.2500000000001 798.75 753.75 716.25C757.5000000000001 701.2499999999999 772.5 686.2499999999999 791.25 686.2499999999999H847.5C907.5000000000002 686.2499999999999 963.7500000000002 656.2499999999999 997.5 607.4999999999999C1027.5 566.2499999999999 1035 517.4999999999999 1027.5 468.7499999999999C1020.0000000000002 419.9999999999999 993.7500000000002 378.7499999999999 952.5000000000002 348.7499999999999C933.7500000000002 337.4999999999999 930 315 945.0000000000002 296.25C952.5000000000002 284.9999999999999 963.7500000000002 281.25 975.0000000000002 281.25C982.5000000000002 281.25 990.0000000000002 285 997.5000000000002 288.75C1053.7500000000002 330 1091.2500000000002 386.25 1102.5000000000002 457.5C1113.75 528.75 1098.75 600 1057.5 656.25z" />
    <glyph glyph-name="保存"
      unicode="&#xE008;"
      horiz-adv-x="33" d="M1076.25 825L825 1076.25C821.25 1083.75 810 1087.5 798.75 1087.5H251.25C172.5 1087.5 112.5 1027.5 112.5 948.75V247.5C112.5 172.5 172.5 108.75 251.25 108.75H952.5C1027.5 108.75 1091.25 168.7500000000002 1091.25 247.5V798.75C1087.5 810 1083.75 821.25 1076.25 825zM813.75 187.5H386.25V513.75H810V187.5zM1012.5 251.25C1012.5 217.5 986.25 187.5 948.75 187.5H885V551.25C885 573.75 870.0000000000001 588.75 847.5 588.75H348.75C326.2500000000001 588.75 311.25 573.75 311.25 551.25V187.5H251.25C213.75 187.5 187.5 213.75 187.5 251.25V948.75C187.5 986.25 213.75 1012.5 251.25 1012.5H315V798.75C315 776.25 330 761.25 352.5 761.25H750C772.5 761.25 787.5 776.25 787.5 798.75S772.5 836.25 750 836.25H386.25V1012.5H783.75L1012.5 783.75V251.25z" />
    <glyph glyph-name="全部"
      unicode="&#xE009;"
      horiz-adv-x="33" d="M498.75 536.25H150C127.5 536.25 112.5 521.2500000000001 112.5 498.75V150C112.5 127.5 127.5 112.5 150 112.5H498.75C521.25 112.5 536.25 127.5 536.25 150V498.75C536.25 521.25 521.25 536.25 498.75 536.25zM461.25 187.5H187.5V461.25H461.25V187.5zM1050 536.25H701.25C678.7499999999999 536.25 663.75 521.2500000000001 663.75 498.75V150C663.75 127.5 678.7499999999999 112.5 701.25 112.5H1050C1072.5 112.5 1087.5 127.5 1087.5 150V498.75C1087.5 521.25 1072.5 536.25 1050 536.25zM1012.5 187.5H738.75V461.25H1012.5V187.5zM1050 1087.5H701.25C678.7499999999999 1087.5 663.75 1072.5 663.75 1050V701.25C663.75 678.75 678.7499999999999 663.75 701.25 663.75H1050C1072.5 663.75 1087.5 678.75 1087.5 701.25V1050C1087.5 1072.5 1072.5 1087.5 1050 1087.5zM1012.5 738.75H738.75V1012.5H1012.5V738.75zM498.75 1087.5H150C127.5 1087.5 112.5 1072.5 112.5 1050V701.25C112.5 678.75 127.5 663.75 150 663.75H498.75C521.25 663.75 536.25 678.75 536.25 701.25V1050C536.25 1072.5 521.25 1087.5 498.75 1087.5zM461.25 738.75H187.5V1012.5H461.25V738.75z" />
    <glyph glyph-name="关闭-2"
      unicode="&#xE00A;"
      horiz-adv-x="33" d="M776.25 776.25C761.25 791.25 738.75 791.25 723.75 776.25L600 652.5L476.25 776.25C461.2499999999999 791.25 438.75 791.25 423.75 776.25C408.75 761.25 408.75 738.75 423.75 723.75L547.4999999999999 600L423.7499999999999 476.25C408.7499999999999 461.25 408.7499999999999 438.75 423.7499999999999 423.75C431.2499999999999 416.25 442.4999999999999 412.5 449.9999999999999 412.5C461.2499999999999 412.5 468.7499999999999 416.25 476.2499999999998 423.75L599.9999999999999 547.5L723.7499999999999 423.75C731.2499999999999 416.25 742.4999999999999 412.5 749.9999999999999 412.5C761.2499999999999 412.5 768.7499999999999 416.25 776.2499999999999 423.75C791.2499999999998 438.75 791.2499999999998 461.25 776.2499999999999 476.25L652.5 600L776.25 723.75C791.25 738.75 791.25 761.25 776.25 776.25zM952.5 1087.5H251.25C176.25 1087.5 112.5 1027.5 112.5 948.75V247.5C112.5 172.5 172.5 108.75 251.25 108.75H952.5C1027.5 108.75 1091.25 168.7500000000002 1091.25 247.5V948.75C1087.5 1027.5 1027.5 1087.5 952.5 1087.5zM1012.5 251.25C1012.5 217.5 986.25 187.5 948.75 187.5H251.25C217.5 187.5 187.5 213.75 187.5 251.25V948.75C187.5 986.25 217.5 1012.5 251.25 1012.5H952.5C986.25 1012.5 1012.5 986.25 1012.5 948.75V251.25z" />
    <glyph glyph-name="关闭-2（实心）"
      unicode="&#xE00B;"
      horiz-adv-x="33" d="M967.5 1087.5H270C195 1087.5 131.25 1027.5 131.25 948.75V247.5C131.25 172.5 191.25 108.75 270 108.75H971.25C1046.25 108.75 1110 168.7500000000002 1110 247.5V948.75C1106.25 1023.75 1046.25 1087.5 967.5 1087.5zM795 476.25C809.9999999999999 461.25 809.9999999999999 438.75 795 423.75C787.5 416.25 780 412.5 768.75 412.5C757.5 412.5 750 416.25 742.5 423.75L618.75 547.5L495 423.75C487.5 416.25 480 412.5 468.75 412.5C457.5 412.5 450 416.25 442.5 423.75C427.5 438.75 427.5 461.25 442.5 476.25L566.25 600L442.5 723.75C427.5 738.75 427.5 761.25 442.5 776.25C457.5000000000001 791.25 480 791.25 495.0000000000001 776.25L618.75 652.5000000000001L742.5 776.2500000000001C757.5 791.2500000000001 780 791.2500000000001 795 776.2500000000001C809.9999999999999 761.2500000000001 809.9999999999999 738.7500000000001 795 723.7500000000001L671.25 600L795 476.25z" />
    <glyph glyph-name="关闭"
      unicode="&#xE00C;"
      horiz-adv-x="33" d="M810 772.5C795.0000000000001 787.5 772.5 787.5 757.5000000000001 772.5L637.5 652.5L517.5 772.5C502.5 787.5 480 787.5 465 772.5C450 757.5 450 735 465 720L585 600L465.0000000000001 480C450.0000000000001 465.0000000000001 450.0000000000001 442.5 465.0000000000001 427.5000000000001C472.5000000000001 420.0000000000001 483.7500000000001 416.25 491.2500000000001 416.25C502.5000000000001 416.25 510.0000000000001 420.0000000000001 517.5 427.5000000000001L637.5 547.5L757.5 427.5000000000001C765 420.0000000000001 776.25 416.25 783.75 416.25C795 416.25 802.5 420.0000000000001 809.9999999999999 427.5000000000001C824.9999999999999 442.5 824.9999999999999 465.0000000000001 809.9999999999999 480L690 600L809.9999999999999 720C825 735 825 757.5 810 772.5zM637.5 1125C348.75 1125 112.5 888.75 112.5 600S348.75 75 637.5 75C926.25 75 1162.5 311.25 1162.5 600S926.25 1125 637.5 1125zM637.5 150C390 150 187.5 352.5 187.5 600S390 1050 637.5 1050S1087.5 847.5 1087.5 600S885 150 637.5 150z" />
    <glyph glyph-name="关闭（实心）"
      unicode="&#xE00D;"
      horiz-adv-x="33" d="M618.75 1125C330 1125 93.75 888.75 93.75 600C93.75 311.25 330 75 618.75 75C907.5 75 1143.75 311.25 1143.75 600C1143.75 888.75 907.5 1125 618.75 1125zM791.25 480C806.25 465.0000000000001 806.25 442.5 791.25 427.5000000000001C783.7500000000001 420.0000000000001 772.5 416.25 765.0000000000001 416.25S746.2500000000001 420.0000000000001 738.7500000000001 427.5000000000001L618.7500000000001 547.5L498.7500000000002 427.5000000000001C491.2500000000002 420.0000000000001 480.0000000000002 416.25 472.5000000000002 416.25S453.7500000000002 420.0000000000001 446.2500000000003 427.5000000000001C431.2500000000003 442.5 431.2500000000003 465.0000000000001 446.2500000000003 480L566.2500000000002 600L446.2500000000003 720C431.2500000000003 735 431.2500000000003 757.5 446.2500000000003 772.5C461.2500000000002 787.5 483.7500000000002 787.5 498.7500000000002 772.5L618.7500000000002 652.5L738.7500000000002 772.5C753.7500000000002 787.5 776.2500000000002 787.5 791.2500000000002 772.5C806.2500000000001 757.4999999999999 806.2500000000001 735 791.2500000000002 719.9999999999999L671.25 600L791.25 480z" />
    <glyph glyph-name="分享"
      unicode="&#xE00E;"
      horiz-adv-x="33" d="M892.5 442.5C840.0000000000001 442.5 791.25 420 757.5 382.5L479.9999999999999 543.75C487.4999999999999 562.5 491.25 581.25 491.25 600S487.5 641.25 479.9999999999999 656.25L757.5 817.5C791.2499999999999 780 840 757.5 892.5 757.5C993.75 757.5 1076.25 840 1076.25 941.25C1076.25 1042.5 993.7500000000002 1125 892.5000000000001 1125C791.2500000000002 1125 708.7500000000002 1042.5 708.7500000000002 941.25C708.7500000000002 922.5 712.5000000000002 900 720.0000000000002 885L446.2500000000003 723.75C412.5000000000003 761.25 363.7500000000003 783.75 311.2500000000003 783.75C210.0000000000002 783.75 127.5000000000002 701.25 127.5000000000002 600C127.5000000000002 498.75 210.0000000000002 416.25 311.2500000000003 416.25C363.7500000000003 416.25 412.5000000000003 438.7500000000001 446.2500000000003 476.2500000000001L723.7500000000001 315.0000000000001C716.2500000000002 296.2500000000001 712.5000000000001 277.5000000000001 712.5000000000001 258.7500000000001C712.5000000000001 157.5 795.0000000000001 75 896.2500000000002 75C997.5000000000002 75 1080.0000000000002 157.5 1080.0000000000002 258.75C1076.25 360 993.75 442.5 892.5 442.5zM892.5 1050C952.5000000000002 1050 1001.25 1001.25 1001.25 941.25C1001.25 881.25 952.5 832.5 892.5 832.5C832.5 832.5 783.7500000000001 881.25 783.7500000000001 941.25C783.75 1001.25 832.5 1050 892.5 1050zM307.5 491.25C247.5 491.25 198.75 540.0000000000001 198.75 600.0000000000001C198.75 660 247.5 708.75 307.5 708.75C367.5 708.75 416.25 660 416.25 600.0000000000001C416.25 540 367.5 491.25 307.5 491.25zM892.5 150C832.5 150 783.7500000000001 198.75 783.7500000000001 258.75C783.7500000000001 277.5 791.25 296.25 798.75 315C798.75 315 798.75 315 798.75 315C798.75 315 798.75 315 798.75 315C817.5 348.7499999999999 851.25 367.4999999999999 892.5 367.4999999999999C952.5000000000002 367.4999999999999 1001.25 318.7499999999999 1001.25 258.75C1001.25 198.75 952.5 150 892.5 150z" />
    <glyph glyph-name="分类"
      unicode="&#xE00F;"
      horiz-adv-x="33" d="M120 963.75C116.25 967.5 112.5 971.25 108.75 971.25C101.25 975 93.75 975 86.25 975C82.5 975 82.5 975 78.75 971.25C78.75 971.25 75 971.25 75 967.5C71.25 967.5 71.25 963.75 67.5 963.75C63.75 960 60 956.25 60 952.5C60 948.75 56.25 945 56.25 937.5S56.25 926.25 60 922.5C60 918.75 63.75 915 67.5 911.25C71.25 907.5 75 903.75 78.75 903.75C82.5 900 90 900 93.75 900C97.5 900 105 900 108.75 903.75C112.5 903.75 116.25 907.5 120 911.25C123.75 915 127.5 918.75 127.5 922.5C127.5 926.25 131.25 930 131.25 937.5S131.25 948.75 127.5 952.5C127.5 956.25 123.75 960 120 963.75zM120 637.5C116.25 641.25 112.5 645 108.75 645C93.75 648.75 78.75 648.75 67.5 637.5C63.75 633.75 60 630 60 626.25C60 622.5 56.25 615 56.25 611.25C56.25 600 60 592.4999999999999 67.5 584.9999999999999C71.25 581.2499999999999 75 577.5 78.75 577.5C82.5 573.7499999999999 86.25 573.7499999999999 93.75 573.7499999999999C97.5 573.7499999999999 105 573.7499999999999 108.75 577.5C112.5 581.25 116.25 581.25 120 584.9999999999999C127.5 592.4999999999999 131.25 599.9999999999999 131.25 611.2499999999999C131.25 614.9999999999999 131.25 622.4999999999999 127.5 626.2499999999999C127.5 630 123.75 637.5 120 637.5zM120 315C116.25 318.75 112.5 322.4999999999999 108.75 322.4999999999999C93.75 326.25 78.75 326.25 67.5 315C63.75 311.2499999999999 60 307.5 60 303.7499999999999S56.25 296.25 56.25 288.75C56.25 284.9999999999999 56.25 277.5 60 273.75C60 270 63.75 266.25 67.5 262.5C71.25 258.75 75 255 78.75 255C82.5 255 86.25 251.25 93.75 251.25C97.5 251.25 105 251.25 108.75 255C112.5 255 116.25 258.75 120 262.5C123.75 266.25 127.5 270 127.5 273.75C127.5 277.5000000000001 131.25 281.25 131.25 288.75C131.25 292.5 131.25 300 127.5 303.7499999999999S123.75 311.25 120 315zM1068.75 326.25H363.75C341.25 326.25 326.25 311.25 326.25 288.75C326.25 266.2499999999999 341.25 251.25 363.75 251.25H1068.75C1091.25 251.25 1106.25 266.2499999999999 1106.25 288.75C1106.25 307.5 1091.25 326.25 1068.75 326.25zM1068.75 648.75H363.75C341.25 648.75 326.25 633.75 326.25 611.25S341.25 573.75 363.75 573.75H1068.75C1091.25 573.75 1106.25 588.75 1106.25 611.25S1091.25 648.75 1068.75 648.75zM363.75 900H1068.75C1091.25 900 1106.25 915 1106.25 937.5S1091.25 975 1068.75 975H363.75C341.25 975 326.25 960 326.25 937.5S345 900 363.75 900z" />
    <glyph glyph-name="切换"
      unicode="&#xE010;"
      horiz-adv-x="33" d="M416.25 682.5C416.25 705 401.25 720 378.75 720H206.25L345 847.5C382.5 885 431.25 915 479.9999999999999 933.75C667.4999999999999 1001.25 873.7499999999999 900 941.25 712.5C948.75 693.75 971.2500000000002 682.5 990.0000000000002 690C1008.7500000000002 697.5 1020.0000000000002 720 1012.5000000000002 738.75C933.7500000000002 963.75 682.5000000000001 1083.75 453.7500000000001 1005C393.75 986.25 337.5 948.75 292.5 903.75L150 768.75V948.75C150 971.25 135 986.25 112.5 986.25S75 971.25 75 948.75V682.5C75 682.5 75 678.75 75 678.75C75 675 75 671.25 75 671.25C75 667.5 78.75 667.5 78.75 663.75C78.75 663.75 78.75 660 82.5 660C82.5 660 82.5 660 82.5 660C86.25 656.2500000000001 90 652.5000000000001 93.75 652.5000000000001C93.75 652.5000000000001 93.75 652.5000000000001 93.75 652.5000000000001C97.5 648.7500000000001 105 648.7500000000001 108.75 648.7500000000001H375C397.5 645 416.25 663.75 416.25 682.5zM1125 510C1125 513.7500000000001 1125 517.5 1125 517.5C1125 521.2500000000001 1121.25 521.2500000000001 1121.25 525C1121.25 525 1121.25 528.75 1117.5 528.75C1117.5 528.75 1117.5 528.75 1117.5 528.75C1113.7499999999998 532.5000000000001 1113.7499999999998 532.5000000000001 1110 532.5000000000001C1110 532.5000000000001 1106.2499999999998 536.2500000000001 1106.2499999999998 536.2500000000001C1106.2499999999998 536.2500000000001 1102.4999999999998 536.2500000000001 1102.4999999999998 536.2500000000001C1098.7499999999998 536.2500000000001 1094.9999999999998 536.2500000000001 1094.9999999999998 540.0000000000002C1094.9999999999998 540.0000000000002 1094.9999999999998 540.0000000000002 1094.9999999999998 540.0000000000002H828.7499999999998C806.2499999999998 540.0000000000002 791.2499999999998 525.0000000000002 791.2499999999998 502.5000000000002C791.2499999999998 480.0000000000001 806.2499999999998 465.0000000000002 828.7499999999998 465.0000000000002H1001.2499999999998L862.4999999999999 337.5000000000003C794.9999999999999 270.0000000000003 704.9999999999999 232.5000000000003 607.4999999999999 232.5000000000003H607.4999999999999C509.9999999999998 232.5000000000003 419.9999999999999 270.0000000000003 352.4999999999999 337.5000000000003C314.9999999999999 375.0000000000003 284.9999999999999 423.7500000000004 266.2499999999999 472.5000000000003C258.7499999999999 491.2500000000003 236.2499999999999 502.5000000000003 217.4999999999998 495.0000000000003C191.25 491.25 180 468.75 187.5 450C210 390 243.75 333.75 288.75 288.75C371.25 206.25 480 161.25 596.25 161.25H596.25C712.5 161.25 821.25 206.25 903.7499999999998 288.75L1046.25 423.75V243.75C1046.25 221.25 1061.25 206.25 1083.75 206.25C1106.25 206.25 1121.25 221.25 1121.25 243.75V510C1125 510 1125 510 1125 510z" />
    <glyph glyph-name="删减-2"
      unicode="&#xE011;"
      horiz-adv-x="33" d="M798.75 637.5H401.25C378.75 637.5 363.75 622.5 363.75 600S378.75 562.5 401.25 562.5H802.5C825 562.5 840 577.5 840 600S821.25 637.5 798.75 637.5zM948.75 1087.5H251.25C172.5 1087.5 112.5 1027.5 112.5 948.75V247.5C112.5 172.5 172.5 108.75 251.25 108.75H952.5C1027.5 108.75 1091.25 168.7500000000002 1091.25 247.5V948.75C1087.5 1027.5 1027.5 1087.5 948.75 1087.5zM1012.5 251.25C1012.5 217.5 986.25 187.5 948.75 187.5H251.25C213.75 187.5 187.5 213.75 187.5 251.25V948.75C187.5 986.25 213.75 1012.5 251.25 1012.5H952.5C986.25 1012.5 1012.5 986.25 1012.5 948.75V251.25z" />
    <glyph glyph-name="删减-3"
      unicode="&#xE012;"
      horiz-adv-x="33" d="M795 637.5H405C382.5000000000001 637.5 367.5 622.5 367.5 600S382.5000000000001 562.5 405 562.5H795.0000000000001C817.5000000000001 562.5 832.5000000000001 577.5 832.5000000000001 600S817.5 637.5 795 637.5zM600 1125C311.25 1125 75 888.75 75 600S311.25 75 600 75S1125 311.25 1125 600S888.75 1125 600 1125zM600 150C352.5 150 150 352.5 150 600S352.5 1050 600 1050S1050 847.5 1050 600S847.5 150 600 150z" />
    <glyph glyph-name="删减"
      unicode="&#xE013;"
      horiz-adv-x="33" d="M1050 618.75H150C127.5 618.75 112.5 603.75 112.5 581.25S127.5 543.75 150 543.75H1050C1072.5 543.75 1087.5 558.75 1087.5 581.25S1072.5 618.75 1050 618.75z" />
    <glyph glyph-name="删减用户"
      unicode="&#xE014;"
      horiz-adv-x="33" d="M446.25 600C566.25 600 660 697.5 660 813.75C660 933.75 562.5000000000001 1027.5 446.2500000000001 1027.5C326.2500000000001 1027.5 232.5000000000001 930 232.5000000000001 813.75C228.75 697.5 326.25 600 446.25 600zM446.25 956.25C525 956.25 585 892.5 585 817.5C585 738.75 521.2500000000001 678.75 446.2500000000001 678.75C367.5000000000001 678.75 307.5000000000001 742.5 307.5000000000001 817.5C303.75 892.5 367.5 956.25 446.25 956.25zM1087.5 675H821.25C798.7499999999999 675 783.75 660 783.75 637.5C783.75 615 798.7499999999999 600 821.25 600H1087.5C1110 600 1125 615 1125 637.5C1125 660 1110 675 1087.5 675zM600 498.75H288.75C168.75 498.75 75 401.25 75 285V195.0000000000001C75 172.5 90 157.5 112.5 157.5S150 172.5 150 195.0000000000001V285C150 363.7500000000001 213.75 423.75 288.75 423.75H600C678.75 423.75 738.75 360 738.75 285V195.0000000000001C738.75 172.5 753.7499999999999 157.5 776.25 157.5C798.75 157.5 813.75 172.5 813.75 195.0000000000001V285C813.75 401.25 720 498.75 600 498.75z" />
    <glyph glyph-name="删除-2"
      unicode="&#xE015;"
      horiz-adv-x="33" d="M997.5 993.75H423.75C412.5 993.75 401.2500000000001 990 393.75 982.5L82.5 626.25C71.25 611.25 71.25 592.5 82.5 577.5L393.75 221.25C401.25 213.75 412.5 209.9999999999999 423.75 209.9999999999999H1001.2500000000002C1072.5 209.9999999999999 1128.75 266.2499999999999 1128.75 337.4999999999999V866.25C1125 937.5 1068.75 993.75 997.5 993.75zM1050 337.5C1050 307.5 1027.5 285 997.5 285H438.75L161.25 600L438.75 918.75H997.5C1027.5 918.75 1050 896.25 1050 866.25V337.5zM892.5 761.25C877.5000000000001 776.25 855 776.25 840.0000000000001 761.25L735 656.25L630 761.25C615.0000000000001 776.25 592.5 776.25 577.5 761.25S562.5 723.75 577.5 708.75L682.5 603.75L577.5 498.75C562.4999999999999 483.7500000000001 562.4999999999999 461.25 577.5 446.2500000000001C584.9999999999999 438.7500000000001 596.25 435 603.7499999999999 435C615 435 622.4999999999999 438.7500000000001 629.9999999999999 446.2500000000001L734.9999999999999 551.2500000000001L840 446.2500000000001C847.4999999999999 438.7500000000001 858.75 435 866.2499999999999 435C877.5 435 884.9999999999999 438.7500000000001 892.4999999999999 446.2500000000001C907.4999999999998 461.25 907.4999999999998 483.7500000000001 892.4999999999999 498.75L787.5 600L892.5 705C907.5 723.75 907.5 746.25 892.5 761.25z" />
    <glyph glyph-name="删除"
      unicode="&#xE016;"
      horiz-adv-x="33" d="M686.25 318.75C708.7500000000001 318.75 723.75 333.75 723.75 356.25V648.75C723.75 671.25 708.7500000000001 686.25 686.25 686.25S648.75 671.25 648.75 648.75V356.25C648.75 333.75 663.75 318.75 686.25 318.75zM1027.5 930H821.25V990C821.25 1065 761.2499999999999 1125 686.2499999999999 1125H491.2499999999999C416.25 1125 356.25 1065 356.25 990V930H150C127.5 930 112.5 915 112.5 892.5C112.5 870 127.5 855 150 855H210V210C210 135 270 75 345 75H832.5C907.5 75 967.5 135 967.5 210V855H1027.5C1050.0000000000002 855 1065 870 1065 892.5C1065 915 1050 930 1027.5 930zM431.25 990C431.25 1023.75 457.5 1050 491.25 1050H686.25C720 1050 746.2500000000001 1023.75 746.2500000000001 990V930H431.2500000000001V990zM892.5 210C892.5 176.2500000000001 866.25 150 832.5 150H345C311.25 150 285 176.25 285 210V855H892.4999999999999V210zM491.25 318.75C513.75 318.75 528.75 333.75 528.75 356.25V648.75C528.75 671.25 513.75 686.25 491.25 686.25S453.75 671.25 453.75 648.75V356.25C453.75 333.75 468.75 318.75 491.25 318.75z" />
    <glyph glyph-name="刷新"
      unicode="&#xE017;"
      horiz-adv-x="33" d="M367.5 420L228.7500000000001 281.25C213.75 266.25 213.75 243.75 228.7500000000001 228.75C236.2500000000001 221.2500000000001 247.5000000000001 217.5 255.0000000000001 217.5S273.75 221.2500000000001 281.2500000000001 228.75L420.0000000000001 367.5C435.0000000000001 382.5 435.0000000000001 405 420.0000000000001 420S382.5 435 367.5 420zM345 600C345 622.5 330 637.5 307.5 637.5H112.5C90 637.5 75 622.5 75 600S90 562.5 112.5 562.5H307.5C330 562.5 345 577.5 345 600zM367.5 780C375 772.5 386.25 768.75 393.75 768.75C405 768.75 412.5 772.5 420 780C435 795 435 817.5 420 832.5L281.25 971.25C266.25 986.25 243.75 986.25 228.75 971.25C213.75 956.25 213.75 933.75 228.75 918.75L367.5 780zM806.25 768.75C817.5 768.75 825 772.5 832.5 780L971.25 918.75C986.2499999999998 933.75 986.2499999999998 956.25 971.25 971.25C956.25 986.25 933.75 986.25 918.75 971.25L780 832.5C765.0000000000001 817.5 765.0000000000001 795 780 780C787.5 772.5 798.75 768.75 806.25 768.75zM832.5 420C817.5 434.9999999999999 795 434.9999999999999 780 420C765.0000000000001 405 765.0000000000001 382.5 780 367.5L918.75 228.75C926.25 221.2500000000001 937.5 217.5 945 217.5S963.75 221.2500000000001 971.25 228.75C986.2499999999998 243.75 986.2499999999998 266.25 971.25 281.25L832.5 420zM1087.5 637.5H892.5C870 637.5 855 622.5 855 600S870 562.5 892.5 562.5H1087.5C1110 562.5 1125 577.5 1125 600S1110 637.5 1087.5 637.5zM600 1125C577.5 1125 562.5 1110 562.5 1087.5V892.5C562.5 870 577.5 855 600 855S637.5 870 637.5 892.5V1087.5C637.5 1110 622.5 1125 600 1125zM600 345C577.5 345 562.5 330 562.5 307.5V112.5C562.5 90 577.5 75 600 75S637.5 90 637.5 112.5V307.5C637.5 330 622.5 345 600 345z" />
    <glyph glyph-name="历史"
      unicode="&#xE018;"
      horiz-adv-x="33" d="M637.5 615V892.5C637.5 915 622.5 930 600 930C577.5 930 562.5 915 562.5 892.5V600C562.5 588.75 566.25 581.25 573.75 573.75L720 427.5000000000001C727.5 420.0000000000001 738.75 416.25 746.25 416.25C757.5 416.25 765 420.0000000000001 772.4999999999999 427.5000000000001C787.4999999999999 442.5 787.4999999999999 465.0000000000001 772.4999999999999 480L637.5 615zM600 1125C311.25 1125 75 888.75 75 600C75 311.25 311.25 75 600 75C888.75 75 1125 311.25 1125 600C1125 888.75 888.75 1125 600 1125zM600 150C352.5 150 150 352.5 150 600S352.5 1050 600 1050S1050 847.5 1050 600S847.5 150 600 150z" />
    <glyph glyph-name="右对齐"
      unicode="&#xE019;"
      horiz-adv-x="33" d="M1087.5 326.25H330C307.5000000000001 326.25 292.5 311.25 292.5 288.75S307.5000000000001 251.25 330 251.25H1087.5C1110 251.25 1125 266.2499999999999 1125 288.75S1110 326.25 1087.5 326.25zM112.5 900H1087.5C1110 900 1125 915 1125 937.5S1110 975 1087.5 975H112.5C90 975 75 960 75 937.5S90 900 112.5 900zM1087.5 540H112.5C90 540 75 525 75 502.5C75 479.9999999999999 90 465 112.5 465H1087.5C1110 465 1125 479.9999999999999 1125 502.5C1125 525 1110 540 1087.5 540zM1087.5 757.5H330C307.5000000000001 757.5 292.5 742.5 292.5 720C292.5 697.5 307.5000000000001 682.5 330 682.5H1087.5C1110 682.5 1125 697.5 1125 720C1125 742.5 1110 757.5 1087.5 757.5z" />
    <glyph glyph-name="喜欢"
      unicode="&#xE01A;"
      horiz-adv-x="33" d="M1038.75 975L1038.75 975C922.4999999999998 1091.25 738.75 1091.25 622.5 975L622.5 975L600 952.5L577.5 975C461.25 1091.25 277.5 1091.25 161.25 975C45 862.5 45 675 161.25 562.5L573.75 150C581.25 142.5 592.5 138.75 600 138.75S618.75 142.5 626.25 150L1038.75 562.5C1155 675 1155 862.5 1038.75 975zM986.25 615L600 228.75L213.75 615C127.5 701.25 127.5 840 213.75 926.25C255.0000000000001 967.5 311.25 990 367.5 990C423.75 990 480 967.5 521.25 926.25L570 877.5C585 862.5 607.5000000000001 862.5 622.5 877.5L675 922.5L675 922.5C761.25 1008.75 900 1008.75 986.25 922.5L986.25 922.5C1072.5 836.25 1072.5 697.5 986.25 615z" />
    <glyph glyph-name="图片"
      unicode="&#xE01B;"
      horiz-adv-x="33" d="M948.75 1087.5H251.25C172.5 1087.5 112.5 1027.5 112.5 948.75V247.5C112.5 172.5 172.5 108.75 251.25 108.75H952.5C1027.5 108.75 1091.25 168.7500000000002 1091.25 247.5V948.75C1087.5 1027.5 1027.5 1087.5 948.75 1087.5zM1012.5 251.25C1012.5 217.5 986.25 187.5 948.75 187.5H341.25L802.5 648.75L1016.2499999999998 435V251.25zM1012.5 540L825 727.5C810 742.5 787.5 742.5 772.5 727.5L236.25 187.5C210 195 187.5 221.25 187.5 251.25V948.75C187.5 986.25 213.75 1012.5 251.25 1012.5H952.5C986.25 1012.5 1012.5 986.25 1012.5 948.75V540zM423.75 888.75C360.0000000000001 888.75 311.25 840 311.25 776.25S360.0000000000001 663.75 423.75 663.75S536.25 712.5 536.25 776.25S487.5 888.75 423.75 888.75zM423.75 738.75C401.2500000000001 738.75 386.25 753.75 386.25 776.25S401.2500000000001 813.75 423.75 813.75S461.25 798.75 461.25 776.25S446.25 738.75 423.75 738.75z" />
    <glyph glyph-name="失败"
      unicode="&#xE01C;"
      horiz-adv-x="33" d="M626.25 431.25L622.4999999999999 435C618.7499999999999 435 618.7499999999999 438.7500000000001 615 438.7500000000001C611.2499999999999 438.7500000000001 611.2499999999999 442.5000000000001 607.5 442.5000000000001C596.25 446.2500000000003 581.25 442.5000000000001 573.75 431.2500000000001C570 427.5000000000001 566.25 423.7500000000001 566.25 420.0000000000001C566.25 416.25 562.5 412.5000000000001 562.5 405.0000000000001C562.5 393.7500000000001 566.25 386.2500000000001 573.75 378.7500000000003C581.25 371.2500000000003 588.75 367.5000000000001 600 367.5000000000001C611.25 367.5000000000001 618.75 371.2500000000003 626.25 378.7500000000003C633.75 386.2500000000001 637.5 393.7500000000001 637.5 405.0000000000001C637.5 408.7500000000003 637.5 416.2500000000003 633.75 420.0000000000001C633.75 423.75 630 427.5 626.25 431.25zM600 832.5C577.5 832.5 562.5 817.5 562.5 795V600C562.5 577.5 577.5 562.5 600 562.5S637.5 577.5 637.5 600V795C637.5 817.5 622.5 832.5 600 832.5zM600 1125C311.25 1125 75 888.75 75 600S311.25 75 600 75S1125 311.25 1125 600S888.75 1125 600 1125zM600 150C352.5 150 150 352.5 150 600S352.5 1050 600 1050S1050 847.5 1050 600S847.5 150 600 150z" />
    <glyph glyph-name="对齐"
      unicode="&#xE01D;"
      horiz-adv-x="33" d="M1087.5 757.5H112.5C90 757.5 75 742.5 75 720C75 697.5 90 682.5 112.5 682.5H1087.5C1110 682.5 1125 697.5 1125 720C1125 742.5 1110 757.5 1087.5 757.5zM112.5 900H1087.5C1110 900 1125 915 1125 937.5S1110 975 1087.5 975H112.5C90 975 75 960 75 937.5S90 900 112.5 900zM1087.5 326.25H112.5C90 326.25 75 311.25 75 288.75S90 251.25 112.5 251.25H1087.5C1110 251.25 1125 266.2499999999999 1125 288.75S1110 326.25 1087.5 326.25zM1087.5 540H112.5C90 540 75 525 75 502.5C75 479.9999999999999 90 465 112.5 465H1087.5C1110 465 1125 479.9999999999999 1125 502.5C1125 525 1110 540 1087.5 540z" />
    <glyph glyph-name="居中对齐"
      unicode="&#xE01E;"
      horiz-adv-x="33" d="M112.5 900H1087.5C1110 900 1125 915 1125 937.5S1110 975 1087.5 975H112.5C90 975 75 960 75 937.5S90 900 112.5 900zM273.75 757.5C251.25 757.5 236.25 742.5 236.25 720C236.25 697.5 251.25 682.5 273.75 682.5H922.5C945.0000000000002 682.5 960 697.5 960 720C960 742.5 945.0000000000002 757.5 922.5 757.5H273.75zM1087.5 540H112.5C90 540 75 525 75 502.5C75 479.9999999999999 90 465 112.5 465H1087.5C1110 465 1125 479.9999999999999 1125 502.5C1125 525 1110 540 1087.5 540zM926.25 326.25H273.75C251.25 326.25 236.25 311.25 236.25 288.75S251.25 251.25 273.75 251.25H922.5C945.0000000000002 251.25 960 266.2499999999999 960 288.75S945 326.25 926.25 326.25z" />
    <glyph glyph-name="展示"
      unicode="&#xE01F;"
      horiz-adv-x="33" d="M1121.25 600C1113.75 615 930 975 600 975C270 975 86.25 615 78.75 600C75 588.75 75 577.5 78.75 566.25C86.25 551.2500000000001 270 191.25 600 191.25C930 191.25 1113.75 551.2500000000001 1121.25 566.25C1125 577.5 1125 588.75 1121.25 600zM600 266.25C352.5 266.25 195 513.7500000000001 153.75 585C195 652.5 352.5 900 600 900C847.5 900 1005 652.5 1046.25 581.25C1005 513.75 847.5 266.25 600 266.25zM600 753.75C506.25 753.75 431.25 678.75 431.25 585C431.25 491.25 506.25 416.25 600 416.25C693.75 416.25 768.75 491.25 768.75 585C768.75 678.75 693.75 753.75 600 753.75zM600 487.5C547.5 487.5 506.25 528.75 506.25 581.25C506.25 633.75 547.5 675 600 675C652.5 675 693.75 633.75 693.75 581.25C693.75 528.75 652.5 487.5 600 487.5z" />
    <glyph glyph-name="左对齐"
      unicode="&#xE020;"
      horiz-adv-x="33" d="M112.5 682.5H870C892.5 682.5 907.5 697.5 907.5 720S892.5 757.5 870 757.5H112.5C90 757.5 75 742.5 75 720S90 682.5 112.5 682.5zM112.5 900H1087.5C1110 900 1125 915 1125 937.5S1110 975 1087.5 975H112.5C90 975 75 960 75 937.5S90 900 112.5 900zM1087.5 540H112.5C90 540 75 525 75 502.5C75 479.9999999999999 90 465 112.5 465H1087.5C1110 465 1125 479.9999999999999 1125 502.5C1125 525 1110 540 1087.5 540zM870 326.25H112.5C90 326.25 75 311.25 75 288.75C75 266.2499999999999 90 251.25 112.5 251.25H870C892.5 251.25 907.5 266.2499999999999 907.5 288.75C907.5 307.5 892.5 326.25 870 326.25z" />
    <glyph glyph-name="手机"
      unicode="&#xE021;"
      horiz-adv-x="33" d="M828.75 1125H341.2500000000001C266.2500000000001 1125 206.2500000000001 1065 206.2500000000001 990V210C206.2500000000001 135 266.2500000000001 75 341.2500000000001 75H828.75C903.75 75 963.7500000000002 135 963.7500000000002 210V990C963.75 1065 903.75 1125 828.75 1125zM888.75 210C888.75 176.2500000000001 862.5 150 828.7499999999999 150H341.25C307.4999999999999 150 281.25 176.25 281.25 210V990C281.25 1023.75 307.5 1050 341.25 1050H828.75C862.5 1050 888.7500000000001 1023.75 888.7500000000001 990V210zM611.25 333.75C611.25 333.75 607.5 337.5 607.5 337.5C603.7499999999999 337.5 603.7499999999999 341.25 600 341.25C596.25 341.25 596.25 345.0000000000001 592.5 345.0000000000001C581.25 348.7500000000001 566.25 345.0000000000001 558.75 333.7500000000001C555 330 551.25 326.2500000000001 551.25 322.5C547.5 318.75 547.5 315.0000000000001 547.5 307.5000000000001C547.5 296.2500000000001 551.25 288.7500000000001 558.7500000000001 281.2500000000001C562.5000000000001 277.5000000000001 566.25 273.7500000000001 570.0000000000001 273.7500000000001S577.5000000000001 270.0000000000001 585.0000000000001 270.0000000000001S596.2500000000001 270.0000000000001 600.0000000000001 273.7500000000001C603.7500000000002 273.7500000000001 607.5000000000001 277.5000000000003 611.2500000000001 281.2500000000001C615.0000000000002 285.0000000000003 618.7500000000001 288.7500000000001 618.7500000000001 292.5000000000001S622.5000000000002 300.0000000000001 622.5000000000002 307.5000000000001S622.5000000000002 318.7500000000001 618.7500000000001 322.5S615 330 611.25 333.75z" />
    <glyph glyph-name="打印"
      unicode="&#xE022;"
      horiz-adv-x="33" d="M990 783.75H929.9999999999998V1087.5C929.9999999999998 1110 915 1125 892.4999999999999 1125H307.5C285 1125 270 1110 270 1087.5V783.75H210C135 783.75 75 723.75 75 648.75V405C75 330 135 270 210 270H270V112.5C270 90 285 75 307.5 75H892.4999999999999C915 75 929.9999999999998 90 929.9999999999998 112.5V270H990C1065 270 1125 330 1125 405V648.75C1125 723.75 1065 783.75 990 783.75zM345 1050H854.9999999999999V783.75H345V1050zM855 150H345V465H854.9999999999999V150zM1050 405C1050 371.2500000000001 1023.75 345 990 345H929.9999999999998V502.5C929.9999999999998 525 915 540 892.4999999999999 540H307.5C285 540 270 525 270 502.5V345H210C176.25 345 150 371.25 150 405V648.75C150 682.5 176.25 708.75 210 708.75H990C1023.7499999999998 708.75 1050 682.5 1050 648.75V405z" />
    <glyph glyph-name="搜索"
      unicode="&#xE023;"
      horiz-adv-x="33" d="M1132.5 138.75L877.5 393.75C941.2499999999998 472.5 982.5 570 982.5 678.75C982.5 926.25 783.75 1125 536.25 1125S93.75 926.25 93.75 682.5C93.75 438.75 292.5 240 536.25 240C645 240 746.25 281.25 821.25 345L1076.25 90C1083.75 82.5 1095 78.75 1102.5 78.75S1121.25 82.5 1128.75 90C1147.5 101.25 1147.5 123.75 1132.5 138.75zM798.75 420C798.75 420 798.75 420 798.75 420C798.75 420 798.75 420 798.75 420C731.25 352.5 641.25 311.25 536.25 311.25C333.75 311.25 168.75 476.2500000000001 168.75 678.75C168.75 885 333.75 1050 536.25 1050S903.75 885 903.75 682.5C907.5 581.25 866.25 487.5 798.75 420z" />
    <glyph glyph-name="放大-2"
      unicode="&#xE024;"
      horiz-adv-x="33" d="M708.75 690H584.9999999999999V813.75C584.9999999999999 836.25 569.9999999999999 851.25 547.4999999999999 851.25S509.9999999999999 836.25 509.9999999999999 813.75V690H386.2499999999999C363.7499999999999 690 348.7499999999999 674.9999999999999 348.7499999999999 652.5C348.7499999999999 630 363.7499999999999 615 386.2499999999999 615H509.9999999999999V491.2499999999999C509.9999999999999 468.7499999999999 524.9999999999999 453.7499999999999 547.4999999999999 453.7499999999999S584.9999999999999 468.7499999999999 584.9999999999999 491.2499999999999V615H708.75C731.25 615 746.25 630 746.25 652.5C746.25 675 727.5 690 708.75 690zM1113.75 138.75L903.75 348.7499999999999C975 431.2499999999999 1016.25 536.2499999999999 1016.25 652.4999999999999C1016.25 915 806.25 1125 547.5 1125C285 1125 75 915 75 652.5C75 393.75 285 180 547.5 180C663.75 180 768.75 221.2500000000001 851.25 292.5L1061.25 82.5C1068.7499999999998 75.0000000000002 1080 71.25 1087.4999999999998 71.25S1106.2499999999998 75.0000000000002 1113.7499999999998 82.5C1128.75 101.25 1128.75 123.75 1113.75 138.75zM825 375C825 375 825 375 825 375C825 375 825 375 825 375C750 303.75 652.5 258.75 543.75 258.75C326.25 258.75 150 435 150 652.5C150 873.75 326.25 1050 547.5 1050C765 1050 945 873.75 945 652.5C941.25 543.75 896.25 446.25 825 375z" />
    <glyph glyph-name="放大"
      unicode="&#xE025;"
      horiz-adv-x="33" d="M472.5 525L187.5 240V450C187.5 472.5 172.5 487.5 150 487.5S112.5 472.5 112.5 450V150C112.5 146.25 112.5 138.75 116.25 135C120 127.5 127.5 120 135 116.25C138.75 112.5 146.25 112.5 150 112.5H450C472.5 112.5 487.5 127.5 487.5 150S472.5 187.5 450 187.5H240L525 472.5C540 487.5 540 510 525 525S487.5 540 472.5 525zM1083.75 1065C1080 1072.5 1072.5 1080 1065 1083.75C1061.25 1087.5 1053.75 1087.5 1050 1087.5H750C727.5 1087.5 712.5 1072.5 712.5 1050C712.5 1027.5 727.5 1012.5 750 1012.5H960L675 727.5C660 712.5 660 690 675 675C682.5 667.5 693.75 663.75 701.25 663.75C712.5 663.75 720 667.5 727.5 675L1012.5 960V750C1012.5 727.5 1027.5 712.5 1050 712.5C1072.5 712.5 1087.5 727.5 1087.5 750V1050C1087.5 1053.75 1087.5 1061.25 1083.75 1065z" />
    <glyph glyph-name="文本"
      unicode="&#xE026;"
      horiz-adv-x="33" d="M1050 1087.5H150C127.5 1087.5 112.5 1072.5 112.5 1050V881.25C112.5 858.75 127.5 843.75 150 843.75S187.5 858.75 187.5 881.25V1012.5H562.5V187.5H431.25C408.75 187.5 393.75 172.5 393.75 150S408.75 112.5 431.25 112.5H768.75C791.25 112.5 806.25 127.5 806.25 150S791.25 187.5 768.75 187.5H637.5V1012.5H1012.5V881.25C1012.5 858.75 1027.5 843.75 1050 843.75S1087.5 858.75 1087.5 881.25V1050C1087.5 1072.5 1072.5 1087.5 1050 1087.5z" />
    <glyph glyph-name="日期"
      unicode="&#xE027;"
      horiz-adv-x="33" d="M930 1027.5H821.2500000000001V1087.5C821.2500000000001 1110 806.2500000000001 1125 783.7500000000001 1125C761.25 1125 746.2500000000001 1110 746.2500000000001 1087.5V1027.5H431.2500000000001V1087.5C431.2500000000001 1110 416.2500000000001 1125 393.7500000000001 1125C371.2500000000001 1125 356.2500000000001 1110 356.2500000000001 1087.5V1027.5H247.5C172.5 1027.5 112.5 967.5 112.5 892.5V210C112.5 135 172.5 75 247.5 75H929.9999999999998C1004.9999999999998 75 1065 135 1065 210V892.5C1065 967.5 1005 1027.5 930 1027.5zM990 210C990 176.2500000000001 963.75 150 929.9999999999998 150H247.5C213.75 150 187.5 176.25 187.5 210V660H990V210zM990 735H187.5V892.5C187.5 926.25 213.75 952.5 247.5 952.5H356.25V892.5C356.25 870 371.25 855 393.75 855C416.25 855 431.25 870 431.25 892.5V952.5H746.25V892.5C746.25 870 761.2499999999999 855 783.75 855C806.25 855 821.25 870 821.25 892.5V952.5H929.9999999999998C963.7499999999998 952.5 990 926.25 990 892.5V735z" />
    <glyph glyph-name="星标-2"
      unicode="&#xE028;"
      horiz-adv-x="33" d="M1125 727.5C1121.25 742.5 1110 750 1095 753.75L776.25 798.75L633.75 1087.5C626.25 1098.75 615 1110 599.9999999999999 1110C584.9999999999999 1110 573.75 1102.5 566.2499999999999 1087.5L423.7499999999999 798.75L108.75 750C93.75 750 82.5 738.75 75 727.5C71.25 712.5 75 697.5 86.25 690L315 465L262.5 146.25C258.75 131.25 266.25 116.25 277.5 108.75C288.75 101.25 303.75 97.5 318.75 105L603.75 254.9999999999999L888.7500000000001 105C892.5000000000001 101.2499999999998 900.0000000000001 101.2499999999998 907.5000000000002 101.2499999999998C915.0000000000002 101.2499999999998 922.5 105 930.0000000000002 108.7499999999998C941.2500000000002 116.2499999999998 948.7500000000002 131.2499999999998 945.0000000000002 146.2499999999998L892.5000000000001 461.2499999999999L1121.2500000000002 686.2499999999999C1125 697.5 1128.75 712.5 1125 727.5z" />
    <glyph glyph-name="星标-3"
      unicode="&#xE029;"
      horiz-adv-x="33" d="M1106.25 723.75C1098.75 738.75 1087.5 750 1076.25 750L757.5 795L615 1083.75C607.5 1095 596.25 1102.5 584.9999999999999 1102.5V1102.5C584.9999999999999 1102.5 584.9999999999999 1102.5 581.2499999999999 1102.5C566.2499999999999 1102.5 555 1095 547.4999999999999 1080L404.9999999999999 791.25L90 750C75 750 63.75 738.75 56.25 727.5C52.5 712.5 56.25 697.5 67.5 690L296.25 465L243.75 150C243.75 138.75 243.75 127.5 251.25 120C251.25 116.25 255 112.5 258.75 112.5C270 105 285 101.25 300 108.75L585 258.75L870 108.75C873.75 105 881.25 105 888.75 105C896.25 105 903.7499999999998 108.75 911.25 112.4999999999998C922.5 119.9999999999998 930 135 926.25 149.9999999999998L873.75 465L1102.5 690C1106.25 697.5 1110 712.5 1106.25 723.75zM798.75 502.5C791.25 495 787.5 479.9999999999999 787.5 468.75L832.5 210L600 333.75C596.25 337.5 588.75 337.5 585 337.5V978.75L701.25 746.25C705 735 716.2499999999999 727.5 731.25 727.5L993.75 690L798.75 502.5z" />
    <glyph glyph-name="星标"
      unicode="&#xE02A;"
      horiz-adv-x="33" d="M1125 720C1121.25 735 1110 742.5 1095 746.25L776.25 791.25L633.75 1080C622.4999999999999 1106.25 577.5 1106.25 566.2499999999999 1080L423.7499999999999 791.25L104.9999999999999 746.25C89.9999999999999 742.5 78.7499999999999 735 74.9999999999999 720S74.9999999999999 690 86.2499999999999 682.5L314.9999999999999 457.5L262.5 142.5C258.75 127.5 266.25 112.5 277.5 105C285 101.25 292.5 97.5 300 97.5C307.5 97.5 311.25 97.5 318.75 101.25L603.75 251.2500000000001L888.7500000000001 101.25C900.0000000000001 93.7500000000002 915.0000000000002 97.5 930.0000000000002 105.0000000000002C941.2500000000002 112.5000000000002 948.7500000000002 127.5000000000002 945.0000000000002 142.5000000000002L892.5000000000001 457.5000000000001L1121.2500000000002 682.5000000000001C1125 693.75 1128.75 708.75 1125 720zM817.5 498.75C810 491.25 806.25 476.25 806.25 465.0000000000001L851.25 206.25L618.75 330C615 333.7500000000001 607.5 333.7500000000001 600 333.7500000000001C592.5 333.7500000000001 588.75 333.7500000000001 581.25 330L348.75 206.25L393.75 465C397.5 476.25 390 491.2499999999999 382.5 498.7499999999999L195 682.4999999999999L457.5 719.9999999999999C468.75 719.9999999999999 479.9999999999999 731.25 487.5 738.7499999999999L600 978.75L716.25 742.5C720.0000000000001 731.25 731.25 723.75 746.2500000000001 723.75L1008.7500000000002 686.25L817.5 498.75z" />
    <glyph glyph-name="标签"
      unicode="&#xE02B;"
      horiz-adv-x="33" d="M855 1143.75H315C236.2500000000001 1143.75 168.75 1080 168.75 997.5V131.25C168.75 116.25 176.25 105 187.5 97.5C198.75 90 213.75 93.75 225 101.25L581.25 356.2500000000001L937.5 101.25C945 97.5 952.5 93.7500000000002 960 93.7500000000002C967.5 93.7500000000002 971.2500000000002 93.7500000000002 978.75 97.5000000000002C990.0000000000002 105.0000000000002 997.5 116.2500000000002 997.5 131.2500000000002V997.5C1001.25 1080 937.5 1143.75 855 1143.75zM926.25 202.5L607.5 431.25C600 435 592.5 438.75 585 438.75S570 434.9999999999999 562.5 431.25L243.75 202.5V997.5C243.75 1035 273.75 1068.75 315 1068.75H855C892.5 1068.75 926.25 1038.75 926.25 997.5V202.5z" />
    <glyph glyph-name="标记"
      unicode="&#xE02C;"
      horiz-adv-x="33" d="M1001.25 1072.5C986.25 1080 971.25 1076.25 959.9999999999998 1065C959.9999999999998 1065 915 1027.5 791.2499999999999 1027.5C723.7499999999999 1027.5 671.25 1050 611.2499999999999 1072.5C547.5 1098.75 480 1125 401.25 1125C243.75 1125 187.5 1072.5 180 1065C172.5 1057.5 168.75 1050 168.75 1038.75V112.5C168.75 90 183.75 75 206.25 75C228.75 75 243.75 90 243.75 112.5V435C262.5 446.2500000000001 311.25 465.0000000000001 401.25 465.0000000000001C468.75 465.0000000000001 521.25 442.5 581.25 420.0000000000001C645 393.7500000000001 708.75 367.5000000000001 791.25 367.5000000000001C948.75 367.5000000000001 1005 420.0000000000001 1012.5 427.5000000000003C1020 435.0000000000003 1023.75 442.5000000000001 1023.75 453.7500000000002V1038.75C1023.75 1053.75 1016.25 1065 1001.25 1072.5zM948.75 472.5C930 461.25 881.25 442.5 791.25 442.5C723.75 442.5 671.2500000000001 465.0000000000001 611.25 487.5C547.5 513.75 483.75 540 401.2500000000001 540C330 540 277.5000000000001 528.7499999999999 243.7500000000001 517.4999999999999V1020C262.5 1031.25 311.25 1050 401.25 1050C468.75 1050 521.25 1027.5 581.25 1005C645 978.75 708.75 952.5 791.25 952.5C862.5 952.5 915.0000000000002 963.75 948.75 975V472.5z" />
    <glyph glyph-name="正确"
      unicode="&#xE02D;"
      horiz-adv-x="33" d="M1113.75 963.75C1098.75 978.75 1076.25 978.75 1061.25 963.75L416.25 318.75L138.75 600C123.75 615 101.25 615 86.25 600C71.25 585 71.25 562.5 86.25 547.5L390 243.75C397.5 236.25 408.75 232.5 416.25 232.5S435 236.25 442.5 243.75L1113.75 911.25C1128.75 926.25 1128.75 948.75 1113.75 963.75z" />
    <glyph glyph-name="消息"
      unicode="&#xE02E;"
      horiz-adv-x="33" d="M1050 326.25C997.5 326.25 952.5 371.25 952.5 423.75V648.75C952.5 828.75 813.75 978.75 637.5 997.5V1068.75C637.5 1091.25 622.5 1106.25 600 1106.25S562.5 1091.25 562.5 1068.75V997.5C386.25 978.75 247.5 828.75 247.5 648.75V423.7499999999999C247.5 371.25 202.5 326.2499999999999 150 326.2499999999999C127.5 326.2499999999999 112.5 311.2499999999999 112.5 288.7499999999999C112.5 266.2499999999998 127.5 251.2499999999999 150 251.2499999999999H1050C1072.5 251.2499999999999 1087.5 266.2499999999998 1087.5 288.7499999999999C1087.5 307.5 1072.5 326.25 1050 326.25zM292.5 326.25C311.25 352.5 322.5 386.25 322.5 423.75V648.75C322.5 802.5 446.25 926.25 600 926.25S877.5 802.5 877.5 648.75V423.75C877.5 386.25 888.75 352.5000000000001 907.5 326.25H292.5zM697.5 180C678.75 191.25 656.25 183.7500000000001 645.0000000000001 165C630.0000000000001 138.75 600.0000000000001 131.2500000000002 573.7500000000001 146.25C566.2500000000001 150.0000000000002 558.7500000000001 157.5 555.0000000000001 165C543.7500000000001 183.7500000000001 521.2500000000001 187.5000000000001 502.5000000000001 180C483.7500000000001 168.75 480.0000000000001 146.25 487.5000000000001 127.5C498.7500000000001 108.75 513.75 93.7500000000002 532.5 82.5C551.25 71.25 573.75 63.75 596.25 63.75C641.25 63.75 682.5 86.2500000000002 705 127.5C720 146.25 716.25 168.75 697.5 180z" />
    <glyph glyph-name="添加-2"
      unicode="&#xE02F;"
      horiz-adv-x="33" d="M798.75 637.5H637.5V798.75C637.5 821.25 622.5 836.25 600 836.25S562.5 821.25 562.5 798.75V637.5H401.25C378.75 637.5 363.75 622.5 363.75 600S378.75 562.5 401.25 562.5H562.5V401.25C562.5 378.7499999999999 577.5 363.75 600 363.75S637.5 378.7499999999999 637.5 401.25V562.5H798.75C821.2500000000001 562.5 836.25 577.5 836.25 600S821.25 637.5 798.75 637.5zM948.75 1087.5H251.25C172.5 1087.5 112.5 1027.5 112.5 948.75V247.5C112.5 172.5 172.5 108.75 251.25 108.75H952.5C1027.5 108.75 1091.25 168.7500000000002 1091.25 247.5V948.75C1087.5 1027.5 1027.5 1087.5 948.75 1087.5zM1012.5 251.25C1012.5 217.5 986.25 187.5 948.75 187.5H251.25C213.75 187.5 187.5 213.75 187.5 251.25V948.75C187.5 986.25 213.75 1012.5 251.25 1012.5H952.5C986.25 1012.5 1012.5 986.25 1012.5 948.75V251.25z" />
    <glyph glyph-name="添加-3"
      unicode="&#xE030;"
      horiz-adv-x="33" d="M795 637.5H637.5V795C637.5 817.5 622.5 832.5 600 832.5C577.5 832.5 562.5 817.5 562.5 795V637.5H405C382.5000000000001 637.5 367.5 622.5 367.5 600S382.5000000000001 562.5 405 562.5H562.5V405C562.5 382.5 577.5 367.5 600 367.5C622.5 367.5 637.5 382.5 637.5 405V562.5H795C817.5 562.5 832.5 577.5 832.5 600S817.5 637.5 795 637.5zM600 1125C311.25 1125 75 888.75 75 600S311.25 75 600 75S1125 311.25 1125 600S888.75 1125 600 1125zM600 150C352.5 150 150 352.5 150 600S352.5 1050 600 1050S1050 847.5 1050 600S847.5 150 600 150z" />
    <glyph glyph-name="添加"
      unicode="&#xE031;"
      horiz-adv-x="33" d="M1050 637.5H637.5V1050C637.5 1072.5 622.5 1087.5 600 1087.5S562.5 1072.5 562.5 1050V637.5H150C127.5 637.5 112.5 622.5 112.5 600S127.5 562.5 150 562.5H562.5V150C562.5 127.5 577.5 112.5 600 112.5S637.5 127.5 637.5 150V562.5H1050C1072.5 562.5 1087.5 577.5 1087.5 600S1072.5 637.5 1050 637.5z" />
    <glyph glyph-name="添加用户"
      unicode="&#xE032;"
      horiz-adv-x="33" d="M446.25 600C566.25 600 660 697.5 660 813.75C660 933.75 562.5000000000001 1027.5 446.2500000000001 1027.5C326.2500000000001 1027.5 232.5000000000001 930 232.5000000000001 813.75C228.75 697.5 326.25 600 446.25 600zM446.25 956.25C525 956.25 585 892.5 585 817.5C585 738.75 521.2500000000001 678.75 446.2500000000001 678.75C367.5000000000001 678.75 307.5000000000001 742.5 307.5000000000001 817.5C303.75 892.5 367.5 956.25 446.25 956.25zM600 498.75H288.75C168.75 498.75 75 401.25 75 285V195.0000000000001C75 172.5 90 157.5 112.5 157.5S150 172.5 150 195.0000000000001V285C150 363.7500000000001 213.75 423.75 288.75 423.75H600C678.75 423.75 738.75 360 738.75 285V195.0000000000001C738.75 172.5 753.7499999999999 157.5 776.25 157.5C798.75 157.5 813.75 172.5 813.75 195.0000000000001V285C813.75 401.25 720 498.75 600 498.75zM1087.5 675H993.75V768.75C993.75 791.25 978.75 806.25 956.25 806.25C933.75 806.25 918.75 791.25 918.75 768.75V675H825C802.5 675 787.5 660 787.5 637.5S802.5 600 825 600H918.75V506.25C918.75 483.75 933.75 468.75 956.25 468.75C978.75 468.75 993.75 483.75 993.75 506.25V600H1087.5C1110 600 1125 615 1125 637.5S1110 675 1087.5 675z" />
    <glyph glyph-name="用户"
      unicode="&#xE033;"
      horiz-adv-x="33" d="M776.25 442.5H420C300 442.5 206.25 345 206.25 228.75V138.75C206.25 116.25 221.25 101.25 243.75 101.25C266.25 101.25 281.25 116.25 281.25 138.75V228.75C281.25 307.5000000000001 345 367.5 420 367.5H776.25C855 367.5 915 303.75 915 228.75V138.75C915 116.25 929.9999999999998 101.25 952.5 101.25C975 101.25 990 116.25 990 138.75V228.75C990 345 892.5 442.5 776.25 442.5zM600 543.75C720 543.75 813.75 641.25 813.75 757.5C813.75 877.5 716.25 975 600 975C480 975 386.25 877.5 386.25 761.25C382.5 641.25 480 543.75 600 543.75zM600 900C678.75 900 738.75 836.25 738.75 761.25C738.75 682.5 675 622.5 600 622.5C521.25 622.5 461.25 686.25 461.25 761.25C457.5 836.25 521.25 900 600 900z" />
    <glyph glyph-name="电"
      unicode="&#xE034;"
      horiz-adv-x="33" d="M1061.25 712.5C1053.75 727.5 1042.5 735 1027.5 735H630L675 1083.75C678.75 1098.75 667.5 1117.5 652.5 1121.25C637.5 1128.75 618.75 1125 607.5 1110L120 525C112.5 513.75 108.75 498.75 116.25 487.5C123.75 472.5 135 465 150 465H547.5L502.5 116.25C498.75 101.25 510 82.5 525 78.75C528.75 74.9999999999998 536.25 74.9999999999998 540 74.9999999999998C551.25 74.9999999999998 562.5 78.75 570 89.9999999999998L1057.5 674.9999999999998C1065 686.25 1068.75 701.25 1061.25 712.5zM592.5 236.25L626.25 498.75C626.25 510 622.4999999999999 521.2500000000001 618.75 528.75C611.25 536.25 600 540.0000000000001 588.75 540.0000000000001H228.75L585 963.7500000000002L551.25 701.2500000000001C551.25 690 555 678.7500000000001 558.75 671.2500000000001S577.5 660 588.75 660H948.7499999999998L592.5 236.25z" />
    <glyph glyph-name="电脑"
      unicode="&#xE035;"
      horiz-adv-x="33" d="M990 1087.5H210C135 1087.5 75 1027.5 75 952.5V465C75 390 135 329.9999999999999 210 329.9999999999999H562.5V209.9999999999999H405C382.5000000000001 209.9999999999999 367.5 195 367.5 172.5C367.5 149.9999999999998 382.5000000000001 135 405 135H795.0000000000001C817.5000000000001 135 832.5000000000001 149.9999999999998 832.5000000000001 172.5C832.5000000000001 195 817.5000000000001 209.9999999999999 795.0000000000001 209.9999999999999H637.5V329.9999999999999H990C1065 329.9999999999999 1125 390 1125 465V952.5C1125 1027.5 1065 1087.5 990 1087.5zM1050 465C1050 431.25 1023.75 404.9999999999999 990 404.9999999999999H210C176.25 404.9999999999999 150 431.2499999999999 150 465V952.5C150 986.25 176.25 1012.5 210 1012.5H990C1023.75 1012.5 1050 986.25 1050 952.5V465z" />
    <glyph glyph-name="电话"
      unicode="&#xE036;"
      horiz-adv-x="33" d="M1008.75 510C963.75 517.5 922.4999999999998 525 877.5 543.75C828.7499999999999 562.5 772.4999999999999 551.25 734.9999999999999 513.75L693.7499999999999 472.4999999999999C596.2499999999999 532.5 513.7499999999999 615 453.7499999999998 712.5L494.9999999999998 753.75C532.4999999999999 791.25 543.7499999999999 847.5 524.9999999999999 896.25C509.9999999999998 937.5 498.7499999999999 982.5 491.2499999999998 1027.5C479.9999999999998 1095 423.7499999999999 1143.75 356.2499999999999 1143.75H210C206.25 1143.75 202.5 1143.75 198.75 1143.75C161.25 1140 131.25 1125 105 1095C82.5 1068.75 71.25 1031.25 75 993.75C90 836.25 146.25 686.25 232.5 551.25C311.25 427.5 416.2500000000001 322.5 536.25 247.5C667.5 161.25 821.25 108.75 975 90C978.75 90 982.5 90 986.25 90C1061.25 90 1121.25 150.0000000000002 1121.25 225.0000000000001V375C1125 442.5 1076.25 502.5 1008.75 510zM1050 228.75C1050 195.0000000000001 1023.75 168.75 990 168.75C986.2499999999998 168.75 986.2499999999998 168.75 986.2499999999998 168.75C843.7499999999999 183.75 701.2499999999999 236.25 577.4999999999999 315C464.9999999999999 386.2499999999999 367.4999999999999 483.75 296.2499999999999 596.25C213.75 716.25 165 858.75 150 1001.25C146.25 1035 172.5 1065 206.25 1068.75C206.25 1068.75 210 1068.75 210 1068.75H356.25C386.25 1068.75 412.5 1046.25 416.25 1016.25C423.75 967.5 435 918.75 453.75 870C461.2499999999999 847.5 457.5 821.25 438.75 806.25L375 742.5C363.75 731.25 360 712.5 367.5 697.5C438.7500000000001 570.0000000000001 547.5 461.25 675 390.0000000000001C690 382.5000000000001 708.75 382.5000000000001 720 397.5L783.75 461.25C798.7499999999999 476.25 825 483.7500000000001 847.4999999999999 476.25C896.25 457.5 945 446.25 993.7499999999998 438.75C1023.7499999999998 434.9999999999999 1046.2499999999998 408.75 1046.2499999999998 378.7499999999999V228.75z" />
    <glyph glyph-name="相机"
      unicode="&#xE037;"
      horiz-adv-x="33" d="M997.5 888.75H840.0000000000001L761.25 1005C753.75 1016.25 742.5 1020 731.25 1020H465C453.75 1020 442.5 1012.5 435 1005L360 888.75H202.5C131.25 888.75 75 832.5 75 765V277.5C75 206.25 131.25 150 202.5 150H1001.2500000000002C1072.5 150 1128.75 206.25 1128.75 277.5V765C1125 832.5 1068.75 888.75 997.5 888.75zM1050 277.5C1050 247.4999999999999 1027.5 225 997.5 225H202.5C172.5 225 150 247.5 150 277.5V765C150 795 172.5 817.5 202.5 817.5H378.7500000000001C390.0000000000001 817.5 401.2500000000001 825 408.7500000000001 832.5L487.5 948.75H712.5L791.25 832.5C798.75 821.25 810 817.5 821.2500000000001 817.5H997.5C1027.5 817.5 1050 795 1050 765V277.5zM600 757.5C480 757.5 386.25 660 386.25 543.75C386.25 423.75 483.75 330 600 330C720 330 813.75 427.5000000000001 813.75 543.75C813.75 660 720 757.5 600 757.5zM600 401.25C521.25 401.25 461.25 465 461.25 540C461.25 618.7499999999999 525 678.7499999999999 600 678.7499999999999C678.75 678.7499999999999 738.75 615 738.75 540C738.75 465 678.75 401.25 600 401.25z" />
    <glyph glyph-name="禁止"
      unicode="&#xE038;"
      horiz-adv-x="33" d="M581.25 1125C435 1125 307.5 1065 210 971.25C210 971.25 210 971.25 210 971.25C210 971.25 210 971.25 210 971.25C116.25 877.5 56.25 746.25 56.25 600C56.25 311.25 292.5 75 581.25 75C723.75 75 855 135 952.5 228.75C952.5 228.75 952.5 228.75 952.5 228.75C952.5 228.75 952.5 228.75 952.5 228.75C1046.25 322.5 1106.25 453.75 1106.25 600.0000000000001C1106.25 888.75 870 1125 581.25 1125zM581.25 150C333.75 150 131.25 352.5 131.25 600C131.25 708.75 172.5 810 236.25 888.75L870 255C791.25 191.25 690 150 581.25 150zM926.25 311.25L292.5 945C371.25 1008.75 472.5 1050 581.25 1050C828.75 1050 1031.25 847.5 1031.25 600C1031.25 491.25 990 390 926.25 311.25z" />
    <glyph glyph-name="移动"
      unicode="&#xE039;"
      horiz-adv-x="33" d="M1083.75 615C1080 618.75 1080 622.5 1076.25 626.25L941.2499999999998 761.25C926.25 776.25 903.7499999999998 776.25 888.75 761.25C873.75 746.25 873.75 723.75 888.75 708.75L959.9999999999998 637.5H637.5V960L708.75 888.75C723.7499999999999 873.75 746.25 873.75 761.2499999999999 888.75C776.2499999999999 903.75 776.2499999999999 926.25 761.2499999999999 941.25L626.2499999999999 1076.25C622.4999999999998 1080 618.7499999999999 1083.75 614.9999999999998 1083.75C607.4999999999999 1087.5 596.2499999999998 1087.5 584.9999999999998 1083.75C581.2499999999998 1080 577.4999999999998 1080 573.7499999999998 1076.25L438.7499999999998 941.25C423.7499999999998 926.25 423.7499999999998 903.75 438.7499999999998 888.75C446.2499999999998 881.25 457.4999999999998 877.5 464.9999999999998 877.5C476.2499999999998 877.5 483.7499999999998 881.25 491.2499999999997 888.75L562.5 960V637.5H240L311.25 708.75C326.2500000000001 723.75 326.2500000000001 746.25 311.25 761.25C296.25 776.25 273.75 776.25 258.75 761.25L123.75 626.25C120 622.5 116.25 618.7500000000001 116.25 615C112.5 611.25 112.5 603.75 112.5 600C112.5 596.25 112.5 588.75 116.25 585C120 581.25 120 577.5000000000001 123.75 573.75L258.75 438.75C266.25 431.25 277.5 427.5 285 427.5S303.7500000000001 431.25 311.25 438.75C326.2500000000001 453.7499999999999 326.2500000000001 476.25 311.25 491.2499999999999L240 562.5H562.5V240L491.25 311.2499999999999C476.25 326.2499999999999 453.75 326.2499999999999 438.75 311.2499999999999C423.75 296.25 423.75 273.7499999999999 438.75 258.75L573.75 123.75C577.5 119.9999999999998 581.2499999999999 116.25 585 116.25C588.75 112.5 596.25 112.5 600 112.5C603.75 112.5 611.25 112.5 615 116.25C618.75 120 622.4999999999999 120 626.25 123.75L761.25 258.7500000000001C776.25 273.75 776.25 296.2500000000001 761.25 311.25C746.2500000000001 326.25 723.75 326.25 708.7500000000001 311.25L637.5 240V562.5H960L888.7500000000001 491.25C873.7500000000001 476.2500000000001 873.7500000000001 453.75 888.7500000000001 438.7500000000001C896.2500000000001 431.2500000000001 907.5000000000002 427.5000000000001 915.0000000000002 427.5000000000001C926.2500000000002 427.5000000000001 933.7500000000002 431.2500000000001 941.25 438.7500000000001L1076.25 573.7500000000001C1080.0000000000002 577.5000000000002 1083.75 581.2500000000001 1083.75 585.0000000000002C1087.5 596.25 1087.5 603.75 1083.75 615z" />
    <glyph glyph-name="筛选"
      unicode="&#xE03A;"
      horiz-adv-x="33" d="M1121.25 1053.75C1113.75 1068.75 1102.5 1076.25 1087.5 1076.25H112.5C97.5 1076.25 86.25 1068.75 78.75 1053.75C71.25 1042.5 75 1027.5 82.5 1016.25L464.9999999999999 566.25V262.5C464.9999999999999 247.5 472.4999999999999 236.25 487.4999999999999 228.75L682.5 131.25C686.25 127.5 693.75 127.5 697.4999999999999 127.5C704.9999999999999 127.5 712.4999999999999 131.25 716.2499999999999 131.25C727.5 138.75 734.9999999999999 150 734.9999999999999 165V562.5L1117.5 1012.5C1125 1027.5 1128.75 1042.5 1121.25 1053.75zM667.5 600C660 592.5 660 585 660 577.5V221.25L540.0000000000001 281.25V577.5C540.0000000000001 584.9999999999999 536.2500000000001 596.25 532.5000000000001 600L195.0000000000001 1001.25H1008.7500000000002L667.5 600z" />
    <glyph glyph-name="编辑-2"
      unicode="&#xE03B;"
      horiz-adv-x="33" d="M187.5 337.5H367.5C378.7500000000001 337.5 386.25 341.25 393.75 348.75L888.75 843.75C903.7499999999998 858.75 903.7499999999998 881.25 888.75 896.25L708.75 1076.25C701.25 1083.75 693.75 1087.5 682.5 1087.5C671.25 1087.5 663.75 1083.75 656.25 1076.25L161.25 581.25C153.75 573.75 150 566.25 150 555V375C150 352.5 165 337.5 187.5 337.5zM225 540L682.5 997.5L809.9999999999999 870L352.5 412.5H225V540zM997.5 187.5H187.5C165 187.5 150 172.5 150 150S165 112.5 187.5 112.5H997.5C1020.0000000000002 112.5 1035 127.5 1035 150S1020 187.5 997.5 187.5z" />
    <glyph glyph-name="编辑-3"
      unicode="&#xE03C;"
      horiz-adv-x="33" d="M941.25 536.25C918.75 536.25 903.75 521.2500000000001 903.75 498.75V258.75C903.75 228.7499999999999 881.25 206.25 851.2500000000001 206.25H221.25C191.25 206.25 168.75 228.75 168.75 258.75V888.75C168.75 918.75 191.25 941.25 221.25 941.25H461.25C483.75 941.25 498.75 956.25 498.75 978.75C498.75 1001.25 483.75 1016.25 461.25 1016.25H221.25C150 1016.25 93.75 960 93.75 888.75V258.75C93.75 187.5 150 131.25 221.25 131.25H851.2500000000001C922.5 131.25 978.75 187.5 978.75 258.75V498.7499999999999C978.75 521.25 963.75 536.25 941.25 536.25zM1057.5 915L877.5 1095C870 1102.5 862.5 1106.25 851.25 1106.25C840 1106.25 832.5 1102.5 825 1095L375 645C367.5 637.5 363.75 630 363.75 618.75V438.75C363.75 416.2499999999999 378.75 401.25 401.25 401.25H581.25C592.5 401.25 600 405 607.5 412.5L1057.5 862.5C1072.5 877.5 1072.5 900 1057.5 915zM566.25 476.25H438.75V603.75L851.25 1016.25L978.7499999999998 888.75L566.25 476.25z" />
    <glyph glyph-name="编辑"
      unicode="&#xE03D;"
      horiz-adv-x="33" d="M1076.25 828.75L825 1076.25C810 1091.25 787.5 1091.25 772.5 1076.25L123.75 427.5C116.25 420 112.5 408.75 112.5 401.25V150C112.5 127.5 127.5 112.5 150 112.5H401.25C412.5 112.5 420 116.25 427.5 123.75L1076.25 772.5C1091.25 787.5 1091.25 813.75 1076.25 828.75zM386.25 187.5H187.5V386.25L798.75 997.5L997.5 798.75L386.25 187.5z" />
    <glyph glyph-name="缩小-2"
      unicode="&#xE03E;"
      horiz-adv-x="33" d="M687.2727272727273 687.2727272727273H370.909090909091C349.0909090909091 687.2727272727273 334.5454545454546 672.7272727272726 334.5454545454546 650.9090909090909C334.5454545454546 629.0909090909091 349.0909090909091 614.5454545454544 370.909090909091 614.5454545454544H687.2727272727273C709.0909090909091 614.5454545454544 723.6363636363636 629.090909090909 723.6363636363636 650.9090909090908C723.6363636363636 672.7272727272726 705.4545454545455 687.2727272727273 687.2727272727273 687.2727272727273zM1080 152.7272727272725L876.3636363636365 356.3636363636362C945.4545454545454 436.3636363636362 985.4545454545456 538.181818181818 985.4545454545456 650.9090909090908C985.4545454545456 901.8181818181818 781.8181818181819 1109.090909090909 527.2727272727274 1109.090909090909C276.3636363636364 1109.090909090909 72.7272727272727 905.4545454545454 72.7272727272727 650.9090909090909C72.7272727272727 399.9999999999999 276.3636363636364 196.3636363636363 530.909090909091 196.3636363636363C643.6363636363636 196.3636363636363 745.4545454545455 236.3636363636363 825.4545454545455 305.4545454545453L1029.090909090909 101.8181818181815C1036.3636363636363 94.5454545454543 1047.2727272727273 90.9090909090908 1054.5454545454545 90.9090909090908S1072.7272727272727 94.5454545454543 1080 101.8181818181815C1094.5454545454547 116.3636363636363 1094.5454545454547 138.181818181818 1080 152.7272727272725zM800.0000000000001 381.8181818181818C800.0000000000001 381.8181818181818 800.0000000000001 381.8181818181818 800.0000000000001 381.8181818181818C800.0000000000001 381.8181818181818 800.0000000000001 381.8181818181818 800.0000000000001 381.8181818181818C727.2727272727274 312.7272727272728 632.7272727272727 269.090909090909 527.2727272727274 269.090909090909C316.3636363636364 269.090909090909 145.4545454545455 440 145.4545454545455 650.9090909090909C145.4545454545455 865.4545454545455 316.3636363636364 1036.3636363636363 530.909090909091 1036.3636363636363C741.8181818181819 1036.3636363636363 916.3636363636364 865.4545454545455 916.3636363636364 650.9090909090909C912.7272727272727 545.4545454545454 869.0909090909091 450.9090909090908 800.0000000000001 381.8181818181818z" />
    <glyph glyph-name="缩小"
      unicode="&#xE03F;"
      horiz-adv-x="33" d="M513.75 536.25C510 540.0000000000001 502.4999999999999 540.0000000000001 498.7499999999999 540.0000000000001H198.75C176.25 540.0000000000001 161.25 525.0000000000001 161.25 502.5000000000001S176.25 465.0000000000001 198.75 465.0000000000001H408.75L123.75 180.0000000000001C108.75 165.0000000000002 108.75 142.5000000000002 123.75 127.5000000000002C131.25 116.25 138.75 112.5 150 112.5C161.25 112.5 168.75 116.25 176.25 123.75L461.25 408.75V198.7499999999999C461.25 176.2499999999999 476.2500000000001 161.25 498.75 161.25C521.25 161.25 536.25 176.2499999999999 536.25 198.7499999999999V498.7499999999999C536.25 502.5 536.25 509.9999999999999 532.5 513.7499999999999C532.5 525 525 532.5 513.75 536.25zM1076.25 1076.25C1061.25 1091.25 1038.75 1091.25 1023.75 1076.25L738.7500000000001 791.25V1001.25C738.7500000000001 1023.75 723.7500000000001 1038.75 701.2500000000001 1038.75C678.75 1038.75 663.7500000000001 1023.75 663.7500000000001 1001.25V701.25C663.7500000000001 697.5 663.7500000000001 690 667.5000000000001 686.25C671.2500000000002 678.75 678.7500000000002 671.25 686.2500000000001 667.5C690.0000000000002 663.75 697.5000000000002 663.75 701.2500000000001 663.75H1001.2500000000002C1023.7500000000002 663.75 1038.75 678.75 1038.75 701.25S1023.7500000000002 738.75 1001.2500000000002 738.75H791.25L1076.25 1023.75C1091.25 1038.75 1091.25 1061.25 1076.25 1076.25z" />
    <glyph glyph-name="群组"
      unicode="&#xE040;"
      horiz-adv-x="33" d="M468.75 600C588.75 600 682.5 697.5 682.5 813.75C682.5 933.75 585 1027.5 468.75 1027.5S255 930 255 813.75C251.25 697.5 348.75 600 468.75 600zM468.75 956.25C547.5 956.25 607.5 892.5 607.5 817.5C607.5 738.75 543.75 678.75 468.75 678.75C390 678.75 330 742.5 330 817.5C326.25 892.5 390 956.25 468.75 956.25zM918.75 926.25C888.75 975 843.75 1008.75 787.5 1023.75C768.75 1027.5 746.25 1016.25 742.5 997.5C738.75 978.75 750 956.25 768.75 952.5C843.75 933.75 888.75 858.75 870 783.75C858.75 735 817.5 697.5 768.75 682.5C750 678.75 735 656.25 742.5 637.5C746.2500000000001 618.75 761.25 607.5 780 607.5C783.7500000000001 607.5 787.5 607.5 787.5 607.5C862.5 626.25 922.5 686.25 941.25 761.25C956.25 817.5 948.75 877.5 918.75 926.25zM645 498.75H288.75C168.75 498.75 75 401.25 75 285V195.0000000000001C75 172.5 90 157.5 112.5 157.5C135 157.5 150 172.5 150 195.0000000000001V285C150 363.7500000000001 213.75 423.75 288.75 423.75H645C723.75 423.75 783.75 360 783.75 285V195.0000000000001C783.75 172.5 798.7499999999999 157.5 821.25 157.5C843.75 157.5 858.75 172.5 858.75 195.0000000000001V285C858.75 401.25 761.25 498.75 645 498.75zM963.75 491.25C945 495.0000000000001 922.4999999999998 483.7500000000001 918.75 465.0000000000001C915 446.2500000000001 926.25 423.75 945 420.0000000000001C1005 405.0000000000001 1050 348.7500000000001 1050 285V195.0000000000001C1050 172.5 1065 157.5 1087.5 157.5C1110 157.5 1125 172.5 1125 195.0000000000001V285C1125 382.5 1057.5 468.75 963.75 491.25z" />
    <glyph glyph-name="视频"
      unicode="&#xE041;"
      horiz-adv-x="33" d="M952.5 1087.5H247.5C172.5 1087.5 112.5 1027.5 112.5 952.5V247.5C112.5 172.5 172.5 112.5 247.5 112.5H952.5C1027.5 112.5 1087.5 172.5 1087.5 247.5V952.5C1087.5 1027.5 1027.5 1087.5 952.5 1087.5zM337.5 187.5H247.5C213.75 187.5 187.5 213.75 187.5 247.5V337.5H337.5V187.5zM337.5 412.5H187.5V562.5H337.5V412.5zM337.5 637.5H187.5V787.5H337.5V637.5zM337.5 862.5H187.5V952.5C187.5 986.25 213.75 1012.5 247.5 1012.5H337.5V862.5zM787.5 187.5H412.5V562.5H787.5V187.5zM787.5 637.5H412.5V1012.5H787.5V637.5zM1012.5 247.5C1012.5 213.7500000000001 986.25 187.5 952.5 187.5H862.5V337.5H1012.5V247.5zM1012.5 412.5H862.5V562.5H1012.5V412.5zM1012.5 637.5H862.5V787.5H1012.5V637.5zM1012.5 862.5H862.5V1012.5H952.5C986.25 1012.5 1012.5 986.25 1012.5 952.5V862.5z" />
    <glyph glyph-name="解锁"
      unicode="&#xE042;"
      horiz-adv-x="33" d="M930 686.25H382.5V843.75C382.5 900 405 948.75 442.5 990C479.9999999999999 1027.5 532.5 1050 588.75 1050H588.75C686.25 1050 772.5 978.75 791.25 885C795.0000000000001 866.25 813.7500000000001 851.25 836.25 855C855 858.75 870 881.25 862.5 900C836.25 1031.25 720 1125 588.75 1125H588.75C435 1125 307.5 997.5 307.5 843.75V686.25H247.5C172.5 686.25 112.5 626.25 112.5 551.25V210C112.5 135 172.5 75 247.5 75H929.9999999999998C1004.9999999999998 75 1065 135 1065 210V551.2500000000001C1065 626.25 1005 686.25 930 686.25zM990 210C990 176.2500000000001 963.75 150 929.9999999999998 150H247.5C213.75 150 187.5 176.25 187.5 210V551.2500000000001C187.5 585 213.75 611.2500000000001 247.5 611.2500000000001H929.9999999999998C963.7499999999998 611.2500000000001 990 585 990 551.2500000000001V210z" />
    <glyph glyph-name="警告"
      unicode="&#xE043;"
      horiz-adv-x="33" d="M600 765C577.5 765 562.5 750 562.5 727.5V540C562.5 517.4999999999999 577.5 502.5 600 502.5S637.5 517.4999999999999 637.5 540V727.5C637.5 750 622.5 765 600 765zM626.25 382.5C626.25 386.25 622.4999999999999 386.25 622.4999999999999 386.25C618.7499999999999 386.25 618.7499999999999 390.0000000000001 615 390.0000000000001C611.2499999999999 390.0000000000001 611.2499999999999 390.0000000000001 607.5 390.0000000000001C600 390.0000000000001 592.5 390.0000000000001 585 390.0000000000001C581.25 386.25 577.5 386.25 573.75 382.5000000000001C570 378.75 566.25 375.0000000000001 566.25 371.2500000000001C566.25 367.5 562.5 360 562.5 356.2500000000001C562.5 352.5000000000001 562.5 345.0000000000001 566.25 341.2500000000003S570 333.7500000000003 573.75 330.0000000000001C577.5 326.2500000000001 581.2499999999999 322.5000000000003 585 322.5000000000003C588.75 322.5000000000003 592.5 318.7500000000001 600 318.7500000000001C611.25 318.7500000000001 618.75 322.5000000000003 626.25 330.0000000000001C630 333.7500000000003 633.75 337.5000000000001 633.75 341.2500000000003C637.5 345.0000000000003 637.5 348.7500000000001 637.5 356.2500000000001C637.5 360.0000000000003 637.5 367.5000000000001 633.75 371.2500000000001C633.75 375 630 378.75 626.25 382.5zM1106.25 326.25L712.5 986.25C675 1046.25 596.25 1068.75 532.5 1031.25C513.75 1020 498.7499999999999 1005 487.5 986.25C487.5 986.25 487.5 986.25 487.5 986.25L93.75 326.25C56.25 262.5 78.75 183.75 142.5 146.25C161.25 135 183.75 127.5 206.25 127.5H997.5C1031.25 127.5 1065 142.5 1091.25 165C1117.5 191.2499999999999 1128.75 221.25 1128.75 258.75C1125 285 1117.5 307.5 1106.25 326.25zM1035 221.25C1023.75 209.9999999999999 1012.5 206.25 997.5 206.25H206.25C195 206.25 187.5 210 180 213.75C153.75 228.7499999999999 142.5 262.5 157.5 288.75L551.25 948.75C555 956.25 562.5 963.75 570 967.5C596.25 982.5 630 975 645 948.75L1038.75 288.75C1042.5 281.25 1046.25 270 1046.25 262.5C1050 247.5 1046.25 232.5 1035 221.25z" />
    <glyph glyph-name="讨论"
      unicode="&#xE044;"
      horiz-adv-x="33" d="M948.75 1087.5H251.25C172.5 1087.5 112.5 1027.5 112.5 948.75V150C112.5 135 120 120 135 116.25C138.75 112.5 146.25 112.5 150 112.5C161.25 112.5 168.75 116.25 176.25 123.75L363.75 311.25H948.7499999999998C1023.7499999999998 311.25 1087.4999999999998 371.2500000000001 1087.4999999999998 450V948.75C1087.5 1027.5 1027.5 1087.5 948.75 1087.5zM1012.5 450C1012.5 416.25 986.25 386.25 948.75 386.25H348.75C337.5 386.25 330 382.5 322.5000000000001 375L187.5 240V948.75C187.5 986.25 213.75 1012.5 251.25 1012.5H952.5C986.25 1012.5 1012.5 986.25 1012.5 948.75V450z" />
    <glyph glyph-name="设置"
      unicode="&#xE045;"
      horiz-adv-x="33" d="M600 768.75C506.25 768.75 431.25 693.75 431.25 600C431.25 506.25 506.25 431.25 600 431.25C693.75 431.25 768.75 506.25 768.75 600C768.75 693.75 693.75 768.75 600 768.75zM600 506.25C547.5 506.25 506.25 547.5 506.25 600C506.25 652.5 547.5 693.75 600 693.75C652.5 693.75 693.75 652.5 693.75 600C693.75 547.5 652.5 506.25 600 506.25zM963.75 453.75C967.5 465.0000000000001 982.5 476.2500000000001 997.4999999999998 476.2500000000001H1001.25C1072.5 476.2500000000001 1128.75 532.5000000000001 1128.75 603.7500000000001S1072.5 731.2500000000001 1001.25 731.2500000000001H993.75C982.5 731.2500000000001 971.25 738.7500000000001 963.75 746.2500000000002L960 750C952.5000000000002 765 956.25 780 967.5 787.5L971.2500000000002 791.25C1020.0000000000002 840 1020.0000000000002 918.75 971.2500000000002 971.25C922.5 1020 843.7500000000001 1020 791.25 971.25L787.5 971.25C776.25 960 761.25 960 746.25 963.75C734.9999999999999 971.25 723.7499999999999 982.5 723.7499999999999 997.5V997.5C727.5 1068.75 671.25 1125 600 1125S472.5 1068.75 472.5 997.5V990C472.5 978.75 465 967.5 457.5 960L450 960C435 952.5 420 956.25 412.5 967.5L408.75 971.25C360 1020 281.25 1020 228.7500000000001 971.25C180 922.5 180 843.75 228.7500000000001 791.25L228.75 787.5C240 776.25 240 761.25 236.25 746.25C232.5 731.25 217.5 723.75 206.25 723.75H202.5C131.25 723.75 75 667.5 75 596.2500000000001C75 525.0000000000001 131.25 468.7500000000001 202.5 468.7500000000001H210C225 468.7500000000001 236.2500000000001 461.2500000000001 243.7500000000001 446.2500000000001C251.2500000000001 431.2500000000001 247.5000000000001 416.25 236.2500000000001 408.7500000000001L221.25 393.7500000000001V393.7500000000001C183.75 345.0000000000001 187.5 273.7500000000001 232.5 228.75C281.25 180 360 180 412.5 228.75L416.25 232.5000000000001C427.5 243.7500000000001 442.5 243.7500000000001 457.5 240.0000000000001C472.5 236.25 479.9999999999999 221.2500000000001 479.9999999999999 210V206.25C479.9999999999999 135 536.25 78.75 607.5 78.75C678.7499999999999 78.75 734.9999999999999 135 734.9999999999999 206.25V213.75C734.9999999999999 228.7499999999999 742.4999999999999 240 757.5 247.4999999999999C772.4999999999999 254.9999999999999 787.5 251.25 795 240L798.75 236.2499999999999C847.5 187.4999999999999 926.25 187.4999999999999 978.75 236.2499999999999C1027.5 284.9999999999999 1027.5 363.7499999999999 978.75 416.2499999999999L967.5 412.5C960 423.75 956.25 438.75 963.75 453.75L963.75 453.75zM915 360L915 360C937.5 337.5 937.5 303.75 918.75 285C900 266.25 866.25 266.25 847.5 285L843.75 288.7500000000001C810 318.7500000000001 765 330.0000000000001 723.75 311.2500000000001C682.5 292.5000000000001 656.25 255.0000000000001 656.25 210.0000000000002V202.5000000000002C656.25 172.5000000000002 633.75 150.0000000000002 603.75 150.0000000000002S551.25 172.5000000000002 551.25 202.5000000000002V206.2500000000002C551.25 251.2500000000003 521.25 292.5000000000004 480 307.5000000000003C465 315.0000000000003 450 318.7500000000003 435.0000000000001 318.7500000000003C405 318.7500000000003 378.7500000000001 307.5000000000003 356.2500000000001 285.0000000000004L352.5000000000001 281.2500000000003C337.5 262.5 303.75 262.5 285 281.25C266.25 300 266.25 333.75 285 352.5L288.75 356.25C288.75 356.25 288.75 356.25 288.75 356.25L296.25 363.75V363.75C322.5 397.4999999999999 326.25 438.75 311.25 476.25C292.5 517.5 255 543.75 210 543.75H202.5C172.5 543.75 150 566.25 150 596.25S172.5 648.75 202.5 648.75H206.25C251.25 648.75 292.5 678.75 307.5 720C326.25 761.25 318.75 810 285 843.75L281.25 843.75C262.5 862.5 262.5 896.25 281.25 915C300 933.75 333.75 933.75 352.5 915L356.25 911.25C386.25 881.25 431.25 873.75 468.75 885L480 888.75C521.25 907.5 547.5 945 547.5 990V997.5C547.5 1027.5 570 1050 600 1050S652.5 1027.5 652.5 997.5V993.75C652.5 948.75 678.7499999999999 911.25 720 892.5C761.25 873.75 809.9999999999999 881.25 843.75 915L847.5 918.75C862.5 937.5 896.25 937.5 915 918.75C933.75 900 933.75 866.25 915 847.5L911.2499999999998 843.75C881.2499999999999 813.75 873.7499999999999 768.75 884.9999999999999 731.25L888.75 720C907.5 678.75 945 652.5 990 652.5H997.4999999999998C1027.5 652.5 1049.9999999999998 630 1049.9999999999998 600S1027.4999999999998 547.5 997.4999999999998 547.5H993.7499999999998C948.7499999999998 547.5 911.2499999999998 521.2500000000001 892.4999999999999 480C873.75 438.75 885 393.75 915 360z" />
    <glyph glyph-name="说明"
      unicode="&#xE046;"
      horiz-adv-x="33" d="M600 637.5C577.5 637.5 562.5 622.5 562.5 600V405C562.5 382.5 577.5 367.5 600 367.5S637.5 382.5 637.5 405V600C637.5 622.5 622.5 637.5 600 637.5zM600 1125C311.25 1125 75 888.75 75 600C75 311.25 311.25 75 600 75C888.75 75 1125 311.25 1125 600C1125 888.75 888.75 1125 600 1125zM600 150C352.5 150 150 352.5 150 600S352.5 1050 600 1050S1050 847.5 1050 600S847.5 150 600 150zM615 828.75C611.2499999999999 832.5 607.5 832.5 599.9999999999999 832.5C588.7499999999999 832.5 581.2499999999999 828.75 573.75 821.25C566.25 813.75 562.4999999999999 806.25 562.4999999999999 795C562.4999999999999 791.25 562.4999999999999 783.75 566.2499999999999 780C569.9999999999999 776.25 569.9999999999999 772.5 573.7499999999999 768.75C577.4999999999999 765 577.4999999999999 765 581.2499999999999 765C584.9999999999999 765 584.9999999999999 761.25 588.7499999999999 761.25C592.4999999999998 761.25 592.4999999999998 761.25 596.2499999999998 757.5C607.4999999999999 753.75 622.4999999999998 757.5 629.9999999999998 768.75C633.7499999999998 772.5 637.4999999999998 776.25 637.4999999999998 780C641.2499999999998 783.75 641.2499999999998 787.5 641.2499999999998 795C641.2499999999998 806.25 637.4999999999998 813.75 629.9999999999998 821.25C622.5 825 618.75 828.75 615 828.75z" />
    <glyph glyph-name="赞"
      unicode="&#xE047;"
      horiz-adv-x="33" d="M963.75 772.5C956.25 772.5 948.75 772.5 945 772.5H727.5V915C727.5 1008.75 648.7499999999999 1087.5 555 1087.5C540 1087.5 524.9999999999999 1080 521.25 1065L352.5 682.5H240C168.75 682.5 112.5 626.25 112.5 555V240C112.5 168.75 168.75 112.5 240 112.5H885C948.75 112.5 1001.2500000000002 157.5 1012.5 221.25L1076.25 626.25C1083.75 693.75 1035 761.25 963.75 772.5zM337.5 187.5H240C210 187.5 187.5 210 187.5 240V554.9999999999999C187.5 584.9999999999999 210 607.4999999999999 240 607.4999999999999H337.5V187.5zM997.5 637.5L933.7500000000002 232.5C930 206.25 907.5000000000002 187.5 881.2500000000001 187.5H412.5V637.5L577.5 1008.75C618.75 997.5 652.5 960 652.5 915V735C652.5 712.5 667.4999999999999 697.5 690 697.5H945C948.75 697.5 952.5 697.5 952.5 697.5C982.5 693.75 1001.25 667.5 997.5 637.5z" />
    <glyph glyph-name="退出"
      unicode="&#xE048;"
      horiz-adv-x="33" d="M491.25 150H247.5C213.75 150 187.5 176.25 187.5 210V990C187.5 1023.75 213.75 1050 247.5 1050H491.25C513.75 1050 528.75 1065 528.75 1087.5C528.75 1110 513.75 1125 491.25 1125H247.5C172.5 1125 112.5 1065 112.5 990V210C112.5 135 172.5 75 247.5 75H491.25C513.75 75 528.75 90 528.75 112.5C528.75 135 513.75 150 491.25 150zM1061.25 615C1057.5 618.75 1057.5 622.5 1053.75 626.25L858.7500000000001 821.25C843.7500000000001 836.2500000000001 821.2500000000001 836.2500000000001 806.2500000000001 821.25S791.2500000000002 783.75 806.2500000000001 768.75L937.5 637.5H442.5C420.0000000000001 637.5 405 622.5 405 600C405 577.5 420.0000000000001 562.5 442.5 562.5H937.5L806.25 431.25C791.25 416.25 791.25 393.75 806.25 378.75C813.75 371.2500000000001 825 367.5 832.5 367.5C843.75 367.5 851.25 371.2500000000001 858.75 378.75L1053.75 573.75C1057.5 577.5000000000001 1061.25 581.25 1061.25 585C1065 596.25 1065 603.75 1061.25 615z" />
    <glyph glyph-name="邮件"
      unicode="&#xE049;"
      horiz-adv-x="33" d="M990 1031.25H210C135 1031.25 75 971.25 75 896.25V311.25C75 236.25 135 176.25 210 176.25H990C1065 176.25 1125 236.25 1125 311.25V896.25C1125 971.25 1065 1031.25 990 1031.25zM210 956.25H990C1016.2499999999998 956.25 1038.75 937.5 1046.25 915L600 600L153.75 915C161.25 937.5 183.75 956.25 210 956.25zM1050 311.25C1050 277.5000000000001 1023.75 251.25 990 251.25H210C176.25 251.25 150 277.5 150 311.25V825L577.5 525C585 521.25 592.5 517.5 600 517.5C607.5 517.5 615 521.2500000000001 622.5 525L1050 825V311.25z" />
    <glyph glyph-name="链接"
      unicode="&#xE04A;"
      horiz-adv-x="33" d="M1008.75 1012.5C907.5 1110 746.25 1110 641.2499999999999 1012.5L562.5 933.75C547.5 918.75 547.5 896.25 562.5 881.25C577.5 866.25 600 866.25 615 881.25L693.75 960C768.75 1031.25 881.25 1031.25 956.25 960C1031.25 888.75 1035 768.75 960 693.75L825 555C817.5 547.5 810 543.75 806.25 536.25C765 506.25 716.25 495 667.5 498.75C618.75 506.25 573.75 532.5 543.75 573.75C532.5 588.75 506.25 592.5 491.25 581.25C476.25 570 472.5 543.75 483.75 528.75C525 472.5 588.75 435 656.25 427.5000000000001C667.5 423.75 682.5 423.75 693.75 423.75C750 423.75 806.25 442.5 851.25 476.25C862.5 483.75 870 491.2499999999999 881.25 502.5L1016.25 637.4999999999999C1113.75 746.25 1110 911.25 1008.75 1012.5zM585 318.75L506.25 240C431.25 168.75 318.75 168.75 243.75 240C210 277.5 187.5 322.5 187.5 375C187.5 423.75 206.25 472.5 240 510L375 645C382.5 652.5 390 656.2500000000001 393.75 663.75C476.25 727.5 596.25 708.75 656.25 626.25C667.5 611.25 693.75 607.5 708.75 618.7500000000001C723.7499999999999 630.0000000000001 727.5 656.2500000000001 716.2499999999999 671.2500000000001C629.9999999999999 787.5 464.9999999999999 810 348.7499999999999 723.7500000000001C337.4999999999999 716.2500000000001 329.9999999999999 708.75 318.7499999999999 697.5000000000001L187.5 558.75C138.75 506.25 112.5 442.4999999999999 112.5 371.25C112.5 300 142.5 236.25 191.25 187.5C243.75 138.75 307.5 112.5 375 112.5C442.5 112.5 506.25 138.75 558.75 187.5L637.5 266.25C652.5 281.25 652.5 303.75 637.5 318.75C622.5 333.75 600 333.75 585 318.75z" />
    <glyph glyph-name="锁"
      unicode="&#xE04B;"
      horiz-adv-x="33" d="M941.25 686.25H881.25V843.75C881.25 1001.25 753.75 1125 600 1125S318.75 1001.25 318.75 843.75V686.25H258.75C183.75 686.25 123.75 626.25 123.75 551.25V210C123.75 135 183.75 75 258.75 75H941.25C1016.25 75 1076.25 135 1076.25 210V551.2500000000001C1076.25 626.25 1016.25 686.25 941.25 686.25zM393.75 843.75C393.75 960 487.5 1050 600 1050C712.5 1050 806.25 956.25 806.25 843.75V686.25H393.75V843.75zM1001.25 210C1001.25 176.2500000000001 975 150 941.2499999999998 150H258.75C225 150 198.75 176.25 198.75 210V551.2500000000001C198.75 585 225 611.2500000000001 258.75 611.2500000000001H941.25C975 611.2500000000001 1001.2500000000002 585 1001.2500000000002 551.2500000000001V210z" />
    <glyph glyph-name="错误"
      unicode="&#xE04C;"
      horiz-adv-x="33" d="M652.5 600L1076.25 1023.75C1091.25 1038.75 1091.25 1061.25 1076.25 1076.25C1061.25 1091.25 1038.75 1091.25 1023.75 1076.25L600 652.5L176.25 1076.25C161.25 1091.25 138.75 1091.25 123.75 1076.25C108.75 1061.25 108.75 1038.75 123.75 1023.75L547.5 600L123.75 176.25C108.75 161.25 108.75 138.75 123.75 123.75C131.25 116.25 138.75 112.5 150 112.5C161.25 112.5 168.75 116.25 176.25 123.75L600 547.5L1023.75 123.75C1031.25 116.25 1042.5 112.5 1050 112.5C1061.25 112.5 1068.75 116.25 1076.25 123.75C1091.25 138.75 1091.25 161.25 1076.25 176.25L652.5 600z" />
    <glyph glyph-name="隐藏"
      unicode="&#xE04D;"
      horiz-adv-x="33" d="M513.75 907.5C540 915 570 918.75 600 918.75C847.5 918.75 1005 671.25 1046.25 600C1023.7499999999998 558.75 993.75 517.5 963.75 483.75C948.75 468.75 952.5 442.4999999999999 967.5 431.25C975 423.75 982.5 423.75 990.0000000000002 423.75C1001.2500000000002 423.75 1012.5000000000002 427.5000000000001 1020.0000000000002 438.75C1057.5 483.75 1091.25 532.5 1121.25 584.9999999999999C1128.75 596.25 1128.75 607.4999999999999 1121.25 618.7499999999999C1113.75 633.75 930.0000000000002 993.75 600 993.75H600C566.25 993.75 532.5 990 498.75 982.5C480 978.75 465 956.25 472.5000000000001 937.5C476.25 915 495 903.75 513.75 907.5zM1113.75 138.75L138.75 1113.75C123.75 1128.75 101.25 1128.75 86.25 1113.75C71.25 1098.75 71.25 1076.25 86.25 1061.25L281.25 866.25C198.75 795 131.25 712.5 78.75 618.75C71.25 607.5 71.25 596.25 78.75 585C86.25 570.0000000000001 270 210 600 210C693.75 210 780 240.0000000000001 858.75 288.7500000000001L1061.25 86.2500000000002C1068.7499999999998 78.7500000000002 1080 75.0000000000002 1087.4999999999998 75.0000000000002C1098.75 75.0000000000002 1106.2499999999998 78.7500000000002 1113.7499999999998 86.2500000000002C1128.75 101.25 1128.75 123.75 1113.75 138.75zM510 637.5L637.5 510C603.75 495.0000000000001 562.5 498.75 532.5 525C502.5 555 495 600 510 637.5zM600 281.25C352.5 281.25 195 528.75 153.75 600C198.75 682.5 262.5 753.75 333.75 813.75L453.7499999999999 693.75C408.75 626.25 416.25 532.5 479.9999999999999 476.25C513.7499999999999 446.25 554.9999999999999 431.25 596.2499999999999 431.25C629.9999999999999 431.25 663.7499999999999 442.5 690 461.25L802.5 348.75C742.5 303.75 671.25 285 600 281.25z" />
    <glyph glyph-name="首页"
      unicode="&#xE04E;"
      horiz-adv-x="33" d="M1050 795L611.25 1136.25C596.25 1147.5 577.5 1147.5 566.25 1136.25L127.5 795C116.25 787.5 112.5 776.25 112.5 765V228.75C112.5 153.75 172.5 93.75 247.5 93.75H929.9999999999998C1004.9999999999998 93.75 1065 153.75 1065 228.75V765C1065 776.25 1061.25 787.5 1050 795zM697.5 168.75H480V581.25H697.5V168.75zM990 228.75C990 195.0000000000001 963.75 168.75 929.9999999999998 168.75H772.4999999999999V618.75C772.4999999999999 641.25 757.5 656.25 734.9999999999999 656.25H442.4999999999999C419.9999999999999 656.25 404.9999999999999 641.25 404.9999999999999 618.75V168.75H247.5C213.75 168.75 187.5 195 187.5 228.75V746.25L588.75 1057.5L990 746.25V228.75z" />
    <glyph glyph-name="二维码"
      unicode="&#xE05B;"
      horiz-adv-x="33" d="M1050 1087.5H701.25C678.7499999999999 1087.5 663.75 1072.5 663.75 1050V701.25C663.75 678.75 678.7499999999999 663.75 701.25 663.75H1050C1072.5 663.75 1087.5 678.75 1087.5 701.25V1050C1087.5 1068.75 1072.5 1087.5 1050 1087.5zM1012.5 735H738.75V1012.5H1012.5V735zM498.75 536.25H150C127.5 536.25 112.5 521.2500000000001 112.5 498.75V150C112.5 127.5 127.5 112.5 150 112.5H498.75C521.25 112.5 536.25 127.5 536.25 150V498.75C536.25 517.5 521.25 536.25 498.75 536.25zM461.25 187.5H187.5V461.25H461.25V187.5zM1050 536.25H701.25C678.7499999999999 536.25 663.75 521.2500000000001 663.75 498.75S678.7499999999999 461.25 701.25 461.25H1050C1072.5 461.25 1087.5 476.25 1087.5 498.75S1072.5 536.25 1050 536.25zM498.75 1087.5H150C127.5 1087.5 112.5 1068.75 112.5 1050V701.25C112.5 678.75 127.5 663.75 150 663.75H498.75C521.25 663.75 536.25 678.75 536.25 701.25V1050C536.25 1068.75 521.25 1087.5 498.75 1087.5zM461.25 735H187.5V1012.5H461.25V735zM1050 386.25C1027.5 386.25 1012.5 371.2500000000001 1012.5 348.75V150C1012.5 127.5 1027.5 112.5 1050 112.5S1087.5 127.5 1087.5 150V348.75C1087.5 367.5 1072.5 386.25 1050 386.25zM701.25 386.25C678.7499999999999 386.25 663.75 371.2500000000001 663.75 348.75V150C663.75 127.5 678.7499999999999 112.5 701.25 112.5S738.75 127.5 738.75 150V348.75C738.75 367.5 720 386.25 701.25 386.25zM873.75 386.25C851.25 386.25 836.25 371.2500000000001 836.25 348.75V198.75C836.25 176.25 851.25 161.25 873.75 161.25S911.25 176.25 911.25 198.75V348.75C911.25 367.5 896.25 386.25 873.75 386.25z" />
    <glyph glyph-name="分析"
      unicode="&#xE05C;"
      horiz-adv-x="33" d="M989.0909090909092 920L636.3636363636364 1094.5454545454545C636.3636363636364 1094.5454545454545 636.3636363636364 1094.5454545454545 636.3636363636364 1094.5454545454545C600 1112.7272727272727 560.0000000000001 1112.7272727272727 527.2727272727274 1094.5454545454545L174.5454545454546 920C130.9090909090909 898.1818181818181 105.4545454545455 854.5454545454545 105.4545454545455 807.2727272727273V389.090909090909C105.4545454545455 341.8181818181817 130.9090909090909 298.1818181818182 174.5454545454546 276.3636363636363L527.2727272727274 101.8181818181815C545.4545454545455 94.5454545454543 563.6363636363637 87.272727272727 581.8181818181819 87.272727272727C600 87.272727272727 621.8181818181819 90.9090909090908 636.3636363636364 101.8181818181815L989.0909090909092 276.3636363636363C1032.7272727272727 298.1818181818182 1058.1818181818182 341.8181818181817 1058.1818181818182 389.090909090909V810.9090909090909C1058.1818181818182 858.1818181818181 1032.7272727272727 898.1818181818181 989.0909090909092 920zM545.4545454545455 174.5454545454545L207.2727272727273 341.8181818181817C189.0909090909091 349.0909090909089 178.1818181818182 367.2727272727272 178.1818181818182 389.090909090909V803.6363636363635L545.4545454545455 621.8181818181818V174.5454545454545zM225.4545454545455 865.4545454545455L560 1032.7272727272727C567.2727272727273 1036.3636363636363 574.5454545454545 1036.3636363636363 581.8181818181818 1036.3636363636363S596.3636363636364 1036.3636363636363 603.6363636363636 1032.7272727272727L938.1818181818182 865.4545454545455L581.8181818181819 683.6363636363636L225.4545454545455 865.4545454545455zM985.4545454545456 392.7272727272727C985.4545454545456 374.5454545454545 974.5454545454546 356.3636363636363 956.3636363636364 345.4545454545454L618.1818181818182 174.5454545454545V621.8181818181818L985.4545454545456 803.6363636363635V392.7272727272727z" />
    <glyph glyph-name="发送"
      unicode="&#xE05D;"
      horiz-adv-x="33" d="M1125 1083.75C1125 1087.5 1125 1087.5 1125 1083.75C1125 1091.25 1121.25 1095 1121.25 1098.75C1121.25 1098.75 1121.25 1098.75 1121.25 1102.5C1117.5 1106.25 1117.5 1110 1113.75 1110C1113.75 1110 1113.75 1110 1113.75 1110C1113.75 1110 1113.75 1110 1113.75 1110C1113.75 1110 1113.75 1110 1113.75 1110C1110 1113.75 1106.25 1113.75 1102.5 1113.75C1102.5 1113.75 1098.75 1113.75 1098.75 1113.75C1094.9999999999998 1113.75 1091.25 1113.75 1087.4999999999998 1113.75C1087.4999999999998 1113.75 1083.7499999999998 1113.75 1083.7499999999998 1113.75C1079.9999999999998 1113.75 1076.2499999999998 1113.75 1072.4999999999998 1110L97.4999999999998 652.5C86.25 656.25 75 641.25 75 626.25C75 611.25 82.5 600 93.75 592.5L360 450C378.75 438.75 401.25 446.25 412.5 465C423.75 483.75 416.25 506.25 397.5 517.4999999999999L198.75 626.2499999999999L963.75 982.4999999999998L502.5 405C498.75 397.5 495.0000000000001 390.0000000000001 495.0000000000001 382.5V127.5C495.0000000000001 105 510.0000000000001 90 532.5 90C555 90 570 105 570 127.5V371.25L1042.5 963.75L986.25 180L735 330C716.25 341.25 693.75 333.7500000000001 682.5000000000001 318.75C671.2500000000001 300 678.75 277.5 693.7500000000001 266.25L997.5 86.25C1005 82.5 1008.7500000000002 82.5 1016.25 82.5C1023.75 82.5 1027.5 82.5 1035 86.25C1046.25 93.75 1053.75 105 1053.75 116.25L1125 1080C1125 1080 1125 1083.75 1125 1083.75z" />
    <glyph glyph-name="成绩单"
      unicode="&#xE05E;"
      horiz-adv-x="33" d="M888.75 1027.5H828.7499999999999V1038.75C828.7499999999999 1087.5 791.2499999999999 1125 742.4999999999999 1125H450C401.25 1125 363.75 1087.5 363.75 1038.75V1027.5H303.75C228.75 1027.5 168.75 967.5 168.75 892.5V210C168.75 135 228.75 75 303.75 75H888.75C963.75 75 1023.75 135 1023.75 210V892.5C1023.75 967.5 963.75 1027.5 888.75 1027.5zM438.75 1038.75C438.75 1046.25 442.5 1050 450 1050H742.5C750 1050 753.75 1046.25 753.75 1038.75V941.25C753.75 933.75 750 930 742.5 930H450C442.5 930 438.75 933.75 438.75 941.25V1038.75zM948.75 210C948.75 176.2500000000001 922.5 150 888.75 150H303.75C270 150 243.75 176.25 243.75 210V892.5C243.75 926.25 270 952.5 303.75 952.5H363.75V941.25C363.75 892.5 401.25 855 450 855H742.5C791.25 855 828.75 892.5 828.75 941.25V952.5H888.7500000000001C922.5 952.5 948.7500000000002 926.25 948.7500000000002 892.5V210z" />
    <glyph glyph-name="折线图"
      unicode="&#xE05F;"
      horiz-adv-x="33" d="M1121.25 896.25C1117.5 903.75 1110 911.25 1102.5 915C1098.75 918.75 1091.25 918.75 1087.5 918.75H821.25C798.7499999999999 918.75 783.75 903.75 783.75 881.25C783.75 858.75 798.7499999999999 843.75 821.25 843.75H997.4999999999998L667.4999999999999 513.75L472.4999999999999 708.75C457.4999999999999 723.75 435 723.75 419.9999999999999 708.75L86.25 375C71.25 360 71.25 337.5 86.25 322.5C93.75 315.0000000000001 105 311.25 112.5 311.25C123.75 311.25 131.25 315.0000000000001 138.75 322.5L446.25 630L641.2499999999999 435C656.2499999999999 420.0000000000001 678.7499999999999 420.0000000000001 693.7499999999999 435L1049.9999999999998 791.25V615.0000000000001C1049.9999999999998 592.5 1064.9999999999998 577.5000000000001 1087.4999999999998 577.5000000000001C1110 577.5000000000001 1124.9999999999998 592.5 1124.9999999999998 615.0000000000001V881.25C1125 885 1125 892.5 1121.25 896.25z" />
    </font>
</defs>
</svg>
